<svg width="123" height="98" viewBox="0 0 123 98" fill="none" xmlns="http://www.w3.org/2000/svg">
<ellipse cx="61.5" cy="92.5" rx="61.5" ry="5.5" fill="#D9D9D9"/>
<path d="M64.7411 10.2407H54.4847C53.7521 10.2407 53.1527 9.64135 53.1527 8.90875V6.37796C53.1527 5.64536 53.7521 5.04596 54.4847 5.04596H64.7411C65.4737 5.04596 66.0731 5.64536 66.0731 6.37796V8.90875C66.0731 9.64135 65.4737 10.2407 64.7411 10.2407Z" fill="#263238" stroke="#263238" stroke-miterlimit="10" stroke-linecap="round" stroke-linejoin="round"/>
<path d="M59.7794 2.5152H58.514V6.44459H59.7794V2.5152Z" fill="#263238" stroke="#263238" stroke-miterlimit="10" stroke-linecap="round" stroke-linejoin="round"/>
<path d="M104.002 30.7535L99.4731 27.257L93.1794 3.98033L82.69 2.68164L87.2187 19.5314H34.2386L38.7674 2.68164L28.2779 3.98033L21.8843 27.59L17.1224 30.7535H104.002ZM83.9886 3.98033L91.8807 4.54643L96.9423 25.259L89.5164 19.4981H89.1168L83.9886 3.98033ZM29.6099 4.57973L37.502 4.01364L31.9742 20.7635L32.174 20.8301L24.4151 25.9916L29.6099 4.57973Z" fill="#263238" stroke="#263238" stroke-miterlimit="10" stroke-linecap="round" stroke-linejoin="round"/>
<path d="M50.1559 31.8191L49.39 20.7302C49.1903 18.0995 47.0258 16.0682 44.3618 16.0682H34.172C31.5413 16.0682 29.3435 18.0995 29.1437 20.7302L28.3778 31.8191H50.1559Z" fill="#787878" stroke="#263238" stroke-miterlimit="10" stroke-linecap="round" stroke-linejoin="round"/>
<path d="M90.3154 31.8191L89.5495 20.7302C89.3497 18.0995 87.1852 16.0682 84.5212 16.0682H74.3314C71.7007 16.0682 69.5029 18.0995 69.3031 20.7302L68.5372 31.8191H90.3154Z" fill="#787878" stroke="#263238" stroke-miterlimit="10" stroke-linecap="round" stroke-linejoin="round"/>
<path d="M97.2417 34.2167C97.4748 33.7172 98.6403 31.0532 98.2074 30.3539C95.8431 26.3579 95.1438 29.0219 94.278 27.0239C92.8461 23.6606 91.6473 21.3296 91.1478 20.9966C90.1488 20.3306 83.6554 19.0652 83.6554 19.0652L75.6967 18.8654C75.6967 18.8654 68.8369 21.6626 68.3707 22.2953C68.1709 22.5617 66.7057 24.3266 65.6734 26.8241C65.5735 27.0905 63.2092 28.9886 63.076 29.2217C61.9438 31.9523 63.0094 33.8171 63.2758 34.25H97.2417V34.2167Z" fill="white" stroke="#263238" stroke-miterlimit="10" stroke-linecap="round" stroke-linejoin="round"/>
<path d="M70.8018 25.0925C70.8684 27.8564 70.8684 30.4538 71.0016 33.1844" stroke="#263238" stroke-miterlimit="10" stroke-linecap="round" stroke-linejoin="round"/>
<path d="M70.7684 23.4608V24.2933" stroke="#263238" stroke-miterlimit="10" stroke-linecap="round" stroke-linejoin="round"/>
<path d="M89.0836 24.8261C88.9171 26.924 88.7506 29.0552 88.6174 31.1531C88.5508 31.8191 88.5175 32.4851 88.4509 33.1844" stroke="#263238" stroke-miterlimit="10" stroke-linecap="round" stroke-linejoin="round"/>
<path d="M89.1834 23.2943L89.1501 23.8604" stroke="#263238" stroke-miterlimit="10" stroke-linecap="round" stroke-linejoin="round"/>
<path d="M77.8615 27.8564C77.9281 29.3216 77.7949 32.2853 77.6617 34.2167H82.9897C82.7233 31.919 82.3237 28.1561 82.2238 27.3569C82.0906 26.1581 80.4922 22.6949 80.4922 22.6949L81.5245 21.3296L79.6597 19.3649L78.4609 21.2297L79.4266 22.7948C79.4266 22.8281 77.7616 25.5587 77.8615 27.8564Z" fill="white" stroke="#263238" stroke-miterlimit="10" stroke-linecap="round" stroke-linejoin="round"/>
<path d="M76.7626 15.8018L76.4296 18.2993L79.9594 20.2307L83.1228 18.3326L82.9896 16.5011L76.7626 15.8018Z" fill="white" stroke="#263238" stroke-miterlimit="10" stroke-linecap="round" stroke-linejoin="round"/>
<path d="M76.4296 18.2993L77.5951 18.932L79.6264 18.0995L77.362 15.8684L76.7626 15.8018L76.4296 18.2993Z" fill="#263238" stroke="#263238" stroke-miterlimit="10" stroke-linecap="round" stroke-linejoin="round"/>
<path d="M76.4963 5.91175C76.4963 5.91175 75.3308 6.74424 75.2309 7.97634C75.131 9.20844 75.7637 14.8028 76.463 16.0682C77.129 17.3336 77.9282 18.3326 79.5599 18.6323C81.1916 18.932 83.123 17.3003 83.3228 16.5344C83.5226 15.7685 84.3218 11.8724 84.3218 10.4072C84.3218 8.94204 84.4883 7.24374 83.1563 6.04494C81.8243 4.81285 79.6265 4.57975 78.5942 4.77955C77.5619 5.01265 76.4963 5.91175 76.4963 5.91175Z" fill="white" stroke="#263238" stroke-miterlimit="10" stroke-linecap="round" stroke-linejoin="round"/>
<path d="M83.1893 6.04494C81.8573 4.81285 79.6595 4.57975 78.6272 4.77955C77.5616 4.97935 76.5293 5.91175 76.5293 5.91175C76.5293 5.91175 75.3638 6.74424 75.2639 7.97634C75.2306 8.57574 75.3638 10.2074 75.5636 11.8724C75.6635 11.8724 75.7634 11.8391 75.7634 11.5394C75.7634 11.0399 75.4637 10.7402 75.8633 10.3073C76.2296 9.87443 76.829 9.30834 77.162 8.74224C77.495 8.20944 77.4284 7.34364 77.4284 7.34364C77.4284 7.34364 78.1943 7.97634 79.6928 8.14284C81.1913 8.30934 82.8563 8.30934 83.0894 8.34264C83.3558 8.37594 82.9895 8.64234 83.3891 9.14184C83.7554 9.64133 83.9219 9.90773 83.9885 10.1408C84.0218 10.3739 84.2216 11.5727 84.2549 11.9057C84.3548 11.273 84.3881 10.7402 84.3881 10.3406C84.3548 8.94204 84.5213 7.27704 83.1893 6.04494Z" fill="#263238" stroke="#263238" stroke-miterlimit="10" stroke-linecap="round" stroke-linejoin="round"/>
<path d="M79.0599 13.8038C79.0599 13.8038 79.7592 14.27 80.2254 14.1701C80.6916 14.0702 81.1578 13.7372 81.1578 13.7372" stroke="#263238" stroke-miterlimit="10" stroke-linecap="round" stroke-linejoin="round"/>
<path d="M81.1913 10.6736C81.1913 10.6736 82.157 9.97433 83.1227 10.7735" stroke="#263238" stroke-miterlimit="10" stroke-linecap="round" stroke-linejoin="round"/>
<path d="M79.1934 10.7403C79.1934 10.7403 78.0612 9.97439 77.262 10.9068" stroke="#263238" stroke-miterlimit="10" stroke-linecap="round" stroke-linejoin="round"/>
<path d="M78.5606 11.5394C78.5606 11.7392 78.4607 11.9057 78.3275 11.9057C78.1943 11.9057 78.0944 11.7392 78.0944 11.5394C78.0944 11.3396 78.1943 11.1731 78.3275 11.1731C78.4607 11.1731 78.5606 11.3396 78.5606 11.5394Z" fill="#263238"/>
<path d="M82.0568 11.5394C82.0568 11.7392 81.9569 11.9057 81.8237 11.9057C81.6905 11.9057 81.5906 11.7392 81.5906 11.5394C81.5906 11.3396 81.6905 11.1731 81.8237 11.1731C81.9569 11.1731 82.0568 11.3396 82.0568 11.5394Z" fill="#263238"/>
<path d="M78.2943 15.2024C78.2943 15.2024 79.926 15.9017 81.5577 15.1691" stroke="#263238" stroke-miterlimit="10" stroke-linecap="round" stroke-linejoin="round"/>
<path d="M75.4969 11.1398C75.4969 11.1398 74.8309 10.6071 74.5645 11.5727C74.2981 12.5384 75.8632 13.8038 75.8632 13.8038L75.4969 11.1398Z" fill="white" stroke="#263238" stroke-miterlimit="10" stroke-linecap="round" stroke-linejoin="round"/>
<path d="M84.3214 11.3063C84.3214 11.3063 84.6877 10.6736 85.0207 11.4728C85.3537 12.272 83.8552 14.0369 83.8552 14.0369L84.3214 11.3063Z" fill="white" stroke="#263238" stroke-miterlimit="10" stroke-linecap="round" stroke-linejoin="round"/>
<path d="M80.1259 14.5697C80.1259 14.5697 78.1279 14.3033 77.695 14.9693C77.3287 15.5354 77.5285 17.1671 77.8615 17.933C78.2944 18.266 78.8605 18.5324 79.5265 18.6656C80.3257 18.7988 81.2248 18.4658 81.9241 18.0329C82.0906 17.7998 82.3237 17.2004 82.2571 15.7352C82.2238 14.5364 81.7243 14.4032 80.1259 14.5697ZM81.6244 17.3003C81.6244 17.3003 80.9584 17.7998 80.026 17.7665C79.693 17.7665 78.5941 17.7332 78.2278 17.3669C77.8615 17.0006 77.5618 15.5354 77.9281 15.0692C78.2944 14.603 80.0926 14.8028 80.0926 14.8028C81.5245 14.7029 81.9574 14.7695 82.024 15.602C82.1572 17.1005 81.6244 17.3003 81.6244 17.3003Z" fill="#263238" stroke="#263238" stroke-miterlimit="10" stroke-linecap="round" stroke-linejoin="round"/>
<path d="M80.592 17.0672C80.592 17.2337 80.3589 17.7665 80.0592 17.7665C79.7595 17.7665 79.5264 17.267 79.5264 17.0672C79.5264 16.9007 79.7595 16.7675 80.0592 16.7675C80.3589 16.7675 80.592 16.9007 80.592 17.0672Z" fill="#263238" stroke="#263238" stroke-miterlimit="10" stroke-linecap="round" stroke-linejoin="round"/>
<path d="M79.9592 20.2307L76.9289 23.0612L75.2972 18.7988L76.3295 17.9663L79.9592 20.2307Z" fill="white" stroke="#263238" stroke-miterlimit="10" stroke-linecap="round" stroke-linejoin="round"/>
<path d="M79.9592 20.2307L82.3901 23.4275L84.0218 19.1984L83.1227 18.3326L79.9592 20.2307Z" fill="white" stroke="#263238" stroke-miterlimit="10" stroke-linecap="round" stroke-linejoin="round"/>
<path d="M93.1795 5.17914L73.7656 31.6859H77.2954L94.1452 6.01164" fill="#263238"/>
<path d="M93.1795 5.17914L73.7656 31.6859H77.2954L94.1452 6.01164" stroke="#263238" stroke-miterlimit="10" stroke-linecap="round" stroke-linejoin="round"/>
<path d="M62.0109 34.2167H66.9059C67.3721 33.6839 67.8383 33.0512 67.9382 32.8847C68.138 32.6183 68.7041 31.6859 68.3711 30.3872C68.0048 29.0885 66.806 28.3559 66.806 28.3559L65.5073 28.6223C65.5073 28.6223 64.4085 28.256 63.576 28.6223C62.7435 28.9886 61.6446 30.2207 61.245 31.6859C60.912 32.8514 61.4448 33.7172 62.0109 34.2167Z" fill="white" stroke="#263238" stroke-miterlimit="10" stroke-linecap="round" stroke-linejoin="round"/>
<path d="M65.1074 28.8887C64.2083 30.1541 63.5423 31.7858 64.508 33.1844" stroke="#263238" stroke-miterlimit="10" stroke-linecap="round" stroke-linejoin="round"/>
<path d="M72.5668 27.0905C72.5668 27.0905 73.4326 26.8907 73.699 27.0572C73.9987 27.2237 74.2984 27.8564 74.4649 28.1561C74.5981 28.4891 74.3983 28.7555 73.9321 28.8221C73.4659 28.8886 72.8665 28.2893 72.8665 28.2893L72.5668 27.0905Z" fill="white" stroke="#263238" stroke-miterlimit="10" stroke-linecap="round" stroke-linejoin="round"/>
<path d="M90.3488 29.0219L89.6828 28.1228L82.4567 32.6516H77.2953L70.1358 28.589L69.5364 29.2217L73.0662 34.2167H86.3195L90.3488 29.0219Z" fill="#263238" stroke="#263238" stroke-miterlimit="10" stroke-linecap="round" stroke-linejoin="round"/>
<path d="M69.2034 34.2167C69.5364 28.5557 74.1984 24.0935 79.9259 24.0935C85.6535 24.0935 90.3488 28.589 90.6485 34.2167H92.3468C92.0138 27.6233 86.5859 22.3619 79.8926 22.3619C73.2327 22.3619 67.7715 27.6233 67.4385 34.2167H69.2034Z" fill="#263238" stroke="#263238" stroke-miterlimit="10" stroke-linecap="round" stroke-linejoin="round"/>
<path d="M67.8383 26.2247C67.8383 26.2247 65.6405 29.3882 65.5739 30.4871C65.5073 31.586 66.0068 32.7515 67.0724 32.918C68.138 33.0845 68.3378 32.4185 68.3378 32.4185C68.3378 32.4185 70.6688 32.918 70.7687 32.918C70.8686 32.918 71.135 32.8181 71.2016 32.5517C71.2682 32.2853 71.468 31.9856 71.468 31.9856C71.468 31.9856 71.8009 31.7858 72.0007 31.3862C72.2005 30.9866 72.3004 30.8201 72.3004 30.8201C72.3004 30.8201 72.7 30.254 72.7666 29.9876C72.8332 29.7212 72.8332 29.255 72.8332 29.255C72.8332 29.255 73.1995 28.7888 73.1662 28.2893C73.1329 27.7898 72.6334 26.8907 71.6011 26.3246C70.5689 25.7585 69.1037 25.4921 68.5709 25.5587C68.0714 25.6586 67.8383 26.2247 67.8383 26.2247Z" fill="white" stroke="#263238" stroke-miterlimit="10" stroke-linecap="round" stroke-linejoin="round"/>
<path d="M69.9028 27.59L72.8332 29.2883" stroke="#263238" stroke-miterlimit="10" stroke-linecap="round" stroke-linejoin="round"/>
<path d="M69.2039 27.1904L69.6035 27.4235" stroke="#263238" stroke-miterlimit="10" stroke-linecap="round" stroke-linejoin="round"/>
<path d="M68.3379 28.7555L72.3006 30.8201" stroke="#263238" stroke-miterlimit="10" stroke-linecap="round" stroke-linejoin="round"/>
<path d="M68.9038 30.8534L71.4679 31.9856" stroke="#263238" stroke-miterlimit="10" stroke-linecap="round" stroke-linejoin="round"/>
<path d="M68.0048 30.4538L68.5043 30.6869" stroke="#263238" stroke-miterlimit="10" stroke-linecap="round" stroke-linejoin="round"/>
<path d="M93.1462 34.2167H98.0413C98.6074 33.7172 99.1402 32.8514 98.8072 31.6859C98.3743 30.2207 97.3087 28.9886 96.4762 28.6223C95.6437 28.256 94.5448 28.6223 94.5448 28.6223L93.2461 28.3559C93.2461 28.3559 92.0473 29.0885 91.681 30.3872C91.3147 31.6859 91.8808 32.6183 92.1139 32.8847C92.2138 33.0512 92.68 33.6839 93.1462 34.2167Z" fill="white" stroke="#263238" stroke-miterlimit="10" stroke-linecap="round" stroke-linejoin="round"/>
<path d="M95.8435 32.585C95.7769 32.7848 95.677 32.9846 95.5438 33.1844" stroke="#263238" stroke-miterlimit="10" stroke-linecap="round" stroke-linejoin="round"/>
<path d="M94.9441 28.8887C95.6101 29.8211 96.1429 30.92 95.9764 32.0189" stroke="#263238" stroke-miterlimit="10" stroke-linecap="round" stroke-linejoin="round"/>
<path d="M87.5188 27.0905C87.5188 27.0905 86.653 26.8907 86.3866 27.0572C86.0869 27.2237 85.7872 27.8564 85.6207 28.1561C85.4875 28.4891 85.6873 28.7555 86.1535 28.8221C86.6197 28.8886 87.2191 28.2893 87.2191 28.2893L87.5188 27.0905Z" fill="white" stroke="#263238" stroke-miterlimit="10" stroke-linecap="round" stroke-linejoin="round"/>
<path d="M92.2138 26.2247C92.2138 26.2247 94.4116 29.3882 94.4782 30.4871C94.5448 31.586 94.0453 32.7515 92.9797 32.918C91.9141 33.0845 91.7143 32.4185 91.7143 32.4185C91.7143 32.4185 89.3833 32.918 89.2834 32.918C89.1835 32.918 88.9171 32.8181 88.8505 32.5517C88.7839 32.2853 88.5841 31.9856 88.5841 31.9856C88.5841 31.9856 88.2511 31.7858 88.0513 31.3862C87.8515 30.9866 87.7516 30.8201 87.7516 30.8201C87.7516 30.8201 87.352 30.254 87.2854 29.9876C87.2188 29.7212 87.2188 29.255 87.2188 29.255C87.2188 29.255 86.8525 28.7888 86.8858 28.2893C86.9191 27.7898 87.4186 26.8907 88.4509 26.3246C89.4832 25.7585 90.9484 25.4921 91.4812 25.5587C91.9807 25.6586 92.2138 26.2247 92.2138 26.2247Z" fill="white" stroke="#263238" stroke-miterlimit="10" stroke-linecap="round" stroke-linejoin="round"/>
<path d="M90.1822 27.59L87.2185 29.2883" stroke="#263238" stroke-miterlimit="10" stroke-linecap="round" stroke-linejoin="round"/>
<path d="M90.8486 27.1904L90.449 27.4235" stroke="#263238" stroke-miterlimit="10" stroke-linecap="round" stroke-linejoin="round"/>
<path d="M91.7144 28.7555L87.7517 30.8201" stroke="#263238" stroke-miterlimit="10" stroke-linecap="round" stroke-linejoin="round"/>
<path d="M91.1816 30.8534L88.5842 31.9856" stroke="#263238" stroke-miterlimit="10" stroke-linecap="round" stroke-linejoin="round"/>
<path d="M92.0475 30.4538L91.548 30.6869" stroke="#263238" stroke-miterlimit="10" stroke-linecap="round" stroke-linejoin="round"/>
<path d="M102.237 56.0947V77.1402H20.0191V56.0947H4.56799V86.8305C4.56799 89.2281 6.49939 91.1595 8.89698 91.1595H15.7235C18.1211 91.1595 20.0524 89.2281 20.0524 86.8305V85.3986H27.5449L31.0414 83.1675H90.9479L95.4101 85.7316H102.27V86.8305C102.27 89.2281 104.201 91.1595 106.599 91.1595H113.425C115.823 91.1595 117.754 89.2281 117.754 86.8305V56.0947H102.237Z" fill="#263238" stroke="#263238" stroke-miterlimit="10" stroke-linecap="round" stroke-linejoin="round"/>
<path d="M114.524 40.9432C113.958 39.811 109.763 35.4488 108.93 34.5497C108.83 34.4498 108.764 34.3499 108.697 34.2167C107.665 32.252 99.0067 9.90773 97.4749 7.07723C94.6778 1.88245 92.4467 2.64835 89.4497 2.28205C89.3498 2.28205 89.2832 2.28205 89.1833 2.28205L66.5726 1.14985C62.8431 0.95005 59.1135 0.95005 55.3839 1.14985C49.2567 1.44955 43.1295 1.74925 37.0023 2.08225C31.9074 2.34865 26.9791 2.01565 24.1486 7.11054C22.5835 9.94103 13.9588 32.2853 12.9265 34.25C12.8599 34.3832 12.7933 34.4831 12.6934 34.583C11.8609 35.4488 7.66511 39.811 7.09901 40.9765C6.46632 42.2419 3.90222 47.0371 3.90222 48.0028C3.90222 48.8353 4.50162 62.455 7.09901 73.1442C7.86491 76.341 10.2958 78.8718 13.4593 79.7709C13.6924 79.8375 13.8589 79.8708 13.9255 79.8708H33.7722C34.305 79.8708 34.8045 79.5711 35.0709 79.1382L39.7662 71.013C39.8661 70.8465 39.966 70.7134 40.1325 70.5802C40.8651 69.9808 43.3626 68.2159 47.0589 68.2159C50.3223 68.2159 56.6493 68.2159 59.8128 68.2159C60.9783 68.2159 61.7109 68.2159 61.7109 68.2159C64.8743 68.2159 71.2013 68.2159 74.4647 68.2159C78.161 68.2159 80.6585 69.9808 81.3911 70.5802C81.5243 70.6801 81.6575 70.8465 81.7574 71.013L86.4527 79.1382C86.7191 79.6044 87.2186 79.8708 87.7514 79.8708H107.598C107.698 79.8708 107.865 79.8375 108.064 79.7709C111.228 78.8718 113.625 76.341 114.425 73.1442C117.055 62.455 117.621 48.8353 117.621 48.0028C117.721 47.0038 115.157 42.2419 114.524 40.9432ZM17.1556 30.7535C21.1516 22.9613 28.6441 5.34564 28.6441 5.34564C65.1407 1.68265 93.1793 5.17914 93.1793 5.17914L104.002 30.7535C79.2932 28.3559 17.1556 30.7535 17.1556 30.7535Z" fill="white" stroke="#263238" stroke-miterlimit="10" stroke-linecap="round" stroke-linejoin="round"/>
<path d="M34.6715 79.8376L33.5726 82.4017H87.7516L86.9524 79.8376L81.691 70.7467C81.691 70.7467 79.6264 68.3491 74.5315 68.1826C69.4366 68.0161 47.1257 68.1826 47.1257 68.1826C47.1257 68.1826 43.2962 67.8496 39.9662 70.7467L34.6715 79.8376Z" fill="#787878" stroke="#263238" stroke-miterlimit="10" stroke-linecap="round" stroke-linejoin="round"/>
<path d="M39.2999 49.5679C39.2999 49.5679 43.5956 57.2269 44.861 58.4923C46.1264 59.7577 47.5583 59.7577 49.3232 59.9242C51.0881 60.0907 75.1306 59.9242 75.1306 59.9242C75.1306 59.9242 77.0287 59.5912 77.9944 58.1593C78.9601 56.7274 82.1236 49.5679 82.1236 49.5679H39.2999Z" fill="#263238" stroke="#263238" stroke-miterlimit="10" stroke-linecap="round" stroke-linejoin="round"/>
<path d="M43.5623 50.6002C43.5623 50.6002 46.9921 56.7274 48.0244 57.7597C49.0567 58.792 50.1889 58.792 51.5875 58.8919C52.9861 58.9918 72.2668 58.8919 72.2668 58.8919C72.2668 58.8919 73.7986 58.6255 74.5645 57.4933C75.3304 56.3611 77.8945 50.6002 77.8945 50.6002H43.5623Z" fill="#787878" stroke="#263238" stroke-miterlimit="10" stroke-linecap="round" stroke-linejoin="round"/>
<path d="M78.7271 77.1403L77.7614 74.5096C77.162 72.8446 75.5636 71.7457 73.7987 71.779L47.9247 72.0454C46.0932 72.0787 44.5281 73.3108 44.0286 75.0757L43.3959 77.1403H78.7271Z" fill="#263238" stroke="#263238" stroke-miterlimit="10" stroke-linecap="round" stroke-linejoin="round"/>
<path d="M42.9629 78.4056L42.1637 80.9364H80.0923L79.1599 78.4056H42.9629Z" fill="#263238" stroke="#263238" stroke-miterlimit="10" stroke-linecap="round" stroke-linejoin="round"/>
<path d="M108.797 34.4165C108.797 34.4165 109.596 28.1894 111.028 28.1894C112.46 28.1894 118.82 29.9543 118.987 31.2197C119.153 32.4851 117.721 33.917 116.422 34.25C115.157 34.583 112.426 34.8827 112.426 34.8827L111.794 37.2803L108.797 34.4165Z" fill="#263238" stroke="#263238" stroke-miterlimit="10" stroke-linecap="round" stroke-linejoin="round"/>
<path d="M12.8599 34.4165C12.8599 34.4165 12.0607 28.1894 10.6288 28.1894C9.1969 28.1894 2.83662 29.9543 2.67012 31.2197C2.50362 32.4851 3.93551 33.917 5.23421 34.25C6.49961 34.583 9.2302 34.8827 9.2302 34.8827L9.8629 37.2803L12.8599 34.4165Z" fill="#263238" stroke="#263238" stroke-miterlimit="10" stroke-linecap="round" stroke-linejoin="round"/>
<path d="M31.3415 48.7687C31.3415 48.7687 34.2053 51.799 35.171 57.3601C35.171 57.3601 21.618 56.7274 16.3566 54.6628C11.0952 52.5982 10.4625 52.4317 10.296 51.466C10.1295 50.5003 10.629 43.6739 12.6936 42.5417C14.7582 41.4428 16.9893 41.7425 19.0539 43.3409C21.1185 44.9393 23.6826 47.3368 25.1145 47.803C26.5464 48.3025 31.3415 48.7687 31.3415 48.7687Z" fill="white" stroke="#263238" stroke-miterlimit="10" stroke-linecap="round" stroke-linejoin="round"/>
<path d="M22.051 49.235C22.051 51.2996 20.386 52.9645 18.3214 52.9645C16.2568 52.9645 14.5918 51.2996 14.5918 49.235C14.5918 47.1704 16.2568 45.5054 18.3214 45.5054C20.386 45.5054 22.051 47.1704 22.051 49.235Z" fill="white" stroke="#263238" stroke-miterlimit="10" stroke-linecap="round" stroke-linejoin="round"/>
<path d="M28.7441 53.8969C28.7441 54.8626 27.9782 55.6285 27.0125 55.6285C26.0468 55.6285 25.2809 54.8626 25.2809 53.8969C25.2809 52.9312 26.0468 52.1653 27.0125 52.1653C27.9449 52.1653 28.7441 52.9312 28.7441 53.8969Z" fill="white" stroke="#263238" stroke-miterlimit="10" stroke-linecap="round" stroke-linejoin="round"/>
<path d="M90.7486 48.7687C90.7486 48.7687 87.8848 51.799 86.9191 57.3601C86.9191 57.3601 100.472 56.7274 105.734 54.6628C110.995 52.5982 111.628 52.4317 111.794 51.466C111.961 50.5003 111.461 43.6739 109.397 42.5417C107.332 41.4428 105.101 41.7425 103.036 43.3409C100.972 44.9393 98.4075 47.3368 96.9756 47.803C95.5437 48.3025 90.7486 48.7687 90.7486 48.7687Z" fill="white" stroke="#263238" stroke-miterlimit="10" stroke-linecap="round" stroke-linejoin="round"/>
<path d="M100.871 49.235C100.871 51.2996 102.536 52.9645 104.601 52.9645C106.666 52.9645 108.331 51.2996 108.331 49.235C108.331 47.1704 106.666 45.5054 104.601 45.5054C102.536 45.5054 100.871 47.1704 100.871 49.235Z" fill="white" stroke="#263238" stroke-miterlimit="10" stroke-linecap="round" stroke-linejoin="round"/>
<path d="M94.2117 53.8969C94.2117 54.8626 94.9776 55.6285 95.9433 55.6285C96.909 55.6285 97.6749 54.8626 97.6749 53.8969C97.6749 52.9312 96.909 52.1653 95.9433 52.1653C95.0109 52.1653 94.2117 52.9312 94.2117 53.8969Z" fill="white" stroke="#263238" stroke-miterlimit="10" stroke-linecap="round" stroke-linejoin="round"/>
<path d="M107.831 62.9545C107.831 62.9545 93.0129 65.8183 92.3802 66.2845C91.7475 66.7507 90.4821 69.4813 90.4821 69.4813L93.5123 68.6821C93.5123 68.6821 100.539 69.0151 102.903 67.8829C105.267 66.784 107.831 62.9545 107.831 62.9545Z" fill="#263238" stroke="#263238" stroke-miterlimit="10" stroke-linecap="round" stroke-linejoin="round"/>
<path d="M14.9247 62.9545C14.9247 62.9545 29.7431 65.8183 30.3758 66.2845C31.0085 66.7507 32.2739 69.4813 32.2739 69.4813L29.2436 68.6821C29.2436 68.6821 22.2174 69.0151 19.8531 67.8829C17.4888 66.784 14.9247 62.9545 14.9247 62.9545Z" fill="#263238" stroke="#263238" stroke-miterlimit="10" stroke-linecap="round" stroke-linejoin="round"/>
<path d="M89.2497 51.2329L85.2871 49.9009H82.1569" stroke="#263238" stroke-miterlimit="10" stroke-linecap="round" stroke-linejoin="round"/>
<path d="M33.1061 51.0332L35.7368 49.5347L39.2999 49.568" stroke="#263238" stroke-miterlimit="10" stroke-linecap="round" stroke-linejoin="round"/>
<path d="M100.472 33.3842C100.872 33.1511 101.271 32.9513 101.704 32.7515" stroke="#263238" stroke-miterlimit="10" stroke-linecap="round" stroke-linejoin="round"/>
<path d="M82.9229 56.0281C85.4203 50.5336 91.1146 39.6445 99.0733 34.2833" stroke="#263238" stroke-miterlimit="10" stroke-linecap="round" stroke-linejoin="round"/>
<path d="M81.5244 59.3248C81.5244 59.3248 81.7242 58.792 82.0905 57.8929" stroke="#263238" stroke-miterlimit="10" stroke-linecap="round" stroke-linejoin="round"/>
<path d="M22.5171 34.25C21.8511 33.8504 21.1851 33.4841 20.4525 33.1178" stroke="#263238" stroke-miterlimit="10" stroke-linecap="round" stroke-linejoin="round"/>
<path d="M38.5008 56.128C36.8691 51.2662 32.6067 41.1764 23.9487 35.1491" stroke="#263238" stroke-miterlimit="10" stroke-linecap="round" stroke-linejoin="round"/>
<path d="M39.2999 58.9585C39.2999 58.9585 39.1667 58.459 38.9336 57.5599" stroke="#263238" stroke-miterlimit="10" stroke-linecap="round" stroke-linejoin="round"/>
<path d="M15.9568 41.9755C15.9568 41.9755 14.2585 37.813 14.2585 35.3821L15.9568 41.9755Z" fill="white"/>
<path d="M15.9568 41.9755C15.9568 41.9755 14.2585 37.813 14.2585 35.3821" stroke="#263238" stroke-miterlimit="10" stroke-linecap="round" stroke-linejoin="round"/>
<path d="M106.599 41.8091C106.599 41.8091 107.166 39.911 107.532 36.5477L106.599 41.8091Z" fill="white"/>
<path d="M106.599 41.8091C106.599 41.8091 107.166 39.911 107.532 36.5477" stroke="#263238" stroke-miterlimit="10" stroke-linecap="round" stroke-linejoin="round"/>
<path d="M112.427 59.5246L111.295 74.2099L90.3822 75.1423C90.3822 75.1423 86.7858 70.8133 86.6193 68.9152C86.4195 67.0171 89.0835 64.2199 89.8161 64.0201C90.5487 63.8203 103.769 61.1896 103.769 61.1896" stroke="#263238" stroke-miterlimit="10" stroke-linecap="round" stroke-linejoin="round"/>
<path d="M10.0961 59.5246L11.2283 74.2099L32.1406 75.1423C32.1406 75.1423 35.737 70.8133 35.9035 68.9152C36.1033 67.0171 33.4393 64.2199 32.7067 64.0201C31.9741 63.8203 18.754 61.1896 18.754 61.1896" stroke="#263238" stroke-miterlimit="10" stroke-linecap="round" stroke-linejoin="round"/>
<path d="M45.0608 53.0977L60.4453 54.3298C61.1113 54.3964 61.744 54.3964 62.41 54.3298L76.5958 53.2309" stroke="#263238" stroke-miterlimit="10" stroke-linecap="round" stroke-linejoin="round"/>
<path d="M46.0933 54.7294L60.4455 55.8949C61.1115 55.9615 61.7442 55.9615 62.4102 55.8949L76.0965 54.8293" stroke="#263238" stroke-miterlimit="10" stroke-linecap="round" stroke-linejoin="round"/>
<path d="M47.092 56.3278L60.412 57.3934C61.078 57.46 61.7107 57.46 62.3767 57.3934L75.3637 56.3944" stroke="#263238" stroke-miterlimit="10" stroke-linecap="round" stroke-linejoin="round"/>
<path d="M17.1555 30.7535C17.1555 30.7535 79.2931 28.3559 104.002 30.7535L93.1792 5.17915C93.1792 5.17915 65.1407 1.68266 28.644 5.34565C28.644 5.34565 21.1515 22.9613 17.1555 30.7535Z" stroke="#263238" stroke-miterlimit="10" stroke-linecap="round" stroke-linejoin="round"/>
</svg>
