<svg width="70" height="24" viewBox="0 0 70 24" fill="none" xmlns="http://www.w3.org/2000/svg">
<path d="M44.4926 2.05161L43.1363 4.94435C40.9992 4.53403 38.8004 4.47249 36.6016 4.80074V0.0410614C39.4168 0.205188 42.0883 0.923243 44.4926 2.05161Z" fill="#353C61"/>
<path d="M54.6027 11.6735C51.9313 8.45254 48.3351 6.25734 44.4102 5.23155L45.6226 2.62604C49.4448 4.67762 52.5683 7.83706 54.6027 11.6735Z" fill="#353C61"/>
<path d="M27.3337 3.01583C27.1282 2.70809 27.1898 2.29778 27.457 2.05158C27.6008 1.92849 27.7652 1.88746 27.9296 1.88746C28.1145 1.88746 28.2995 1.94901 28.4228 2.09262L32.3888 5.90857C33.3547 5.53928 34.341 5.23154 35.348 5.02638V0C35.3069 0 35.2658 0 35.2452 0C25.6075 0 17.4082 6.23682 14.5107 14.8945C16.3191 14.3611 19.5659 14.1354 22.6689 14.0328C24.4156 11.1606 26.9227 8.69872 30.0667 6.97539L27.3337 3.01583Z" fill="#E14658"/>
<path d="M35.9851 10.3605L27.9297 2.60553L33.6014 10.8734C34.4233 10.6272 35.3481 10.4631 35.9851 10.3605Z" fill="#E14658"/>
<path d="M0.781612 18.554C1.15381 18.0515 1.60044 17.6607 2.15874 17.3816C2.69842 17.1024 3.29394 16.9536 3.92667 16.9536C4.70829 16.9536 5.32241 17.1583 5.80627 17.5677C6.29012 17.9771 6.55066 18.5354 6.6251 19.2426H4.87578C4.80134 18.982 4.65246 18.7773 4.42914 18.6284C4.20582 18.4796 3.94528 18.4237 3.64753 18.4237C3.16367 18.4237 2.73564 18.5912 2.36345 18.9262C2.00986 19.2612 1.76793 19.7078 1.67488 20.2847C1.63766 20.4522 1.61905 20.6197 1.61905 20.7313C1.61905 21.1594 1.73071 21.513 1.97264 21.7735C2.21457 22.034 2.54955 22.1457 2.97757 22.1457C3.27533 22.1457 3.57309 22.0713 3.83362 21.9224C4.09416 21.7735 4.31748 21.5688 4.50358 21.3083H6.2529C5.93653 22.0154 5.47129 22.5737 4.85716 22.9831C4.22443 23.3926 3.53587 23.5973 2.75425 23.5973C2.19596 23.5973 1.7121 23.4856 1.28408 23.2623C0.874662 23.039 0.539684 22.7412 0.334976 22.3318C0.111658 21.941 0 21.4757 0 20.9361C0 20.6941 0.0186101 20.4708 0.0744396 20.2475C0.186099 19.6334 0.409416 19.0565 0.781612 18.554Z" fill="#353C61"/>
<path d="M11.1101 22.4062H8.67225L8.07674 23.56H6.40186L9.91911 17.028H11.7615L12.9711 23.56H11.2962L11.1101 22.4062ZM10.924 21.1966L10.5518 18.7773L9.30499 21.1966H10.924Z" fill="#353C61"/>
<path d="M19.0564 17.4932C19.41 17.8096 19.5961 18.2004 19.5961 18.6843C19.5961 18.8332 19.5775 18.9634 19.5589 19.0937C19.4844 19.5217 19.2983 19.9125 19.0006 20.2661C18.7028 20.6011 18.2934 20.843 17.7909 20.9919L18.8331 23.5787H17.0465L16.1161 21.1036H15.7439L15.2972 23.5787H13.6968L14.8506 17.0466H17.5118C18.2004 17.028 18.7028 17.1769 19.0564 17.4932ZM17.9398 18.9448C17.9398 18.7401 17.884 18.5912 17.7537 18.4796C17.6235 18.3679 17.4374 18.3121 17.1954 18.3121H16.2091L15.93 19.9497H16.9163C17.214 19.9497 17.4374 19.8753 17.6048 19.7264C17.7723 19.5775 17.884 19.3914 17.9398 19.1123C17.9398 19.0565 17.9398 18.982 17.9398 18.9448Z" fill="#353C61"/>
<path d="M30.4643 17.028L29.3105 23.56H27.7286L28.4358 19.652L26.2771 23.56H24.993L24.2114 19.6148L23.5228 23.56H21.9224L23.0762 17.028H24.9558L25.9979 21.5502L28.6033 17.028H30.4643Z" fill="#353C61"/>
<path d="M34.7259 22.4062H32.288L31.6925 23.56H30.0176L33.5348 17.028H35.3772L36.5868 23.56H34.912L34.7259 22.4062ZM34.5398 21.1966L34.1676 18.7773L32.9207 21.1966H34.5398Z" fill="#353C61"/>
<path d="M43.156 23.56H41.5556L39.6202 19.5217L38.8944 23.56H37.2939L38.4478 17.028H40.0296L41.9836 21.0849L42.7094 17.028H44.2912L43.156 23.56Z" fill="#353C61"/>
<path d="M48.5716 22.4062H46.1337L45.5382 23.56H43.8633L47.3805 17.028H49.2229L50.4325 23.56H48.7577L48.5716 22.4062ZM48.3855 21.1966L48.0133 18.7773L46.7664 21.1966H48.3855Z" fill="#353C61"/>
<path d="M52.2007 18.554C52.5729 18.0515 53.0381 17.6607 53.5778 17.3816C54.1175 17.1024 54.7316 16.9536 55.3829 16.9536C56.1646 16.9536 56.7973 17.1397 57.2625 17.5118C57.7278 17.884 57.9883 18.4237 58.0442 19.0937H56.2948C56.2204 18.8704 56.0715 18.7029 55.8668 18.5912C55.6621 18.4796 55.4202 18.4237 55.1224 18.4237C54.6013 18.4237 54.1733 18.5912 53.8011 18.9262C53.4289 19.2612 53.2056 19.7078 53.0939 20.2847C53.0567 20.4708 53.0381 20.6383 53.0381 20.7686C53.0381 21.2338 53.1684 21.5874 53.4289 21.8293C53.6895 22.0713 54.0803 22.2015 54.5641 22.2015C54.9549 22.2015 55.3085 22.1085 55.6063 21.9038C55.904 21.6991 56.146 21.4199 56.3321 21.0477H54.3594L54.5455 19.8753H58.0069L57.7464 21.3641C57.5603 21.7549 57.2998 22.1271 56.9462 22.4621C56.5926 22.797 56.2018 23.0762 55.7179 23.2995C55.2527 23.5042 54.7316 23.6159 54.1919 23.6159C53.6336 23.6159 53.1312 23.5042 52.7031 23.2809C52.2751 23.0576 51.9587 22.7598 51.7168 22.3504C51.4935 21.9596 51.3818 21.4944 51.3818 20.9547C51.3818 20.7686 51.4004 20.5452 51.4563 20.2847C51.5865 19.6334 51.8285 19.0565 52.2007 18.554Z" fill="#353C61"/>
<path d="M60.7794 18.2748L60.5375 19.6334H62.659L62.4543 20.843H60.3328L60.0722 22.2946H62.4915L62.2682 23.56H58.2671L59.4209 17.028H63.422L63.1987 18.2935H60.7794V18.2748Z" fill="#353C61"/>
<path d="M68.6516 17.4932C69.0052 17.8096 69.1913 18.2004 69.1913 18.6843C69.1913 18.8332 69.1727 18.9634 69.1541 19.0937C69.0796 19.5217 68.8935 19.9125 68.5958 20.2661C68.298 20.6011 67.8886 20.843 67.3862 20.9919L68.4283 23.5787H66.6418L65.7113 21.1036H65.3391L64.8924 23.5787H63.292L64.4458 17.0466H67.1256C67.7956 17.028 68.298 17.1769 68.6516 17.4932ZM67.535 18.9448C67.535 18.7401 67.4792 18.5912 67.3489 18.4796C67.2187 18.3679 67.0326 18.3121 66.7906 18.3121H65.8043L65.5252 19.9497H66.5115C66.8092 19.9497 67.0326 19.8753 67.2001 19.7264C67.3675 19.5775 67.4792 19.3914 67.535 19.1123C67.535 19.0565 67.535 18.982 67.535 18.9448Z" fill="#353C61"/>
</svg>
