<svg width="202" height="76" viewBox="0 0 202 76" fill="none" xmlns="http://www.w3.org/2000/svg">
<path d="M186.505 66.4431C185.791 67.5025 185.031 68.4579 184.198 69.2768C184.008 69.4653 183.812 69.6408 183.622 69.8097C182.534 70.7521 181.341 71.4606 180.05 71.8505L172.862 71.8895L163.059 71.935L156.506 71.961L151.847 71.9805H151.637L148.564 72H146.919L108.395 71.9025H108.08L98.172 71.8765L71.6852 71.8115L60.8795 71.7855H60.624L18.5741 71.688C18.5741 71.688 5.69113 64.6948 6.00567 52.5088C6.20881 44.7162 8.86928 28.2796 36.778 24.432C46.7056 23.0672 51.8628 18.9207 56.5415 14.4232C57.531 13.4808 58.4943 12.5254 59.4707 11.57C66.1481 5.09675 73.6904 -1.07103 94.581 0.157329C95.8326 0.228821 97.0253 0.358806 98.172 0.527787C101.914 1.08022 105.131 2.1006 108.08 3.19898C115.177 5.85717 120.694 9.0353 128.328 7.51448C143.02 4.58332 154.33 4.31684 163.065 5.91566C166.781 6.59808 170.024 7.61196 172.868 8.91181C185.987 14.8651 190.555 26.6807 192.724 38.2884C193.766 43.8648 191.898 58.3061 186.505 66.4431Z" fill="#EBF3FA"/>
<path d="M45.0254 64.2819H133.96L163.996 61.5749C163.996 61.5749 158.621 48.1826 157.157 47.9818C155.693 47.781 47.8489 47.9818 47.8489 47.9818L45.0254 64.2819Z" fill="#1D2949"/>
<path d="M176.825 62.9606C174.61 63.8673 161.231 64.068 161.231 64.068C161.231 64.068 161.535 47.6709 147.754 49.5813C133.973 51.4917 136.382 65.0977 136.382 65.0977L70.1329 66.2828C70.1329 66.2828 71.2079 48.9984 56.5786 50.8182C44.4232 52.3271 47.5447 66.2181 47.5447 66.2181C35.4281 66.8462 34.1782 62.734 34.1782 62.734V61.0373H34.9359V56.5689H34.1782V53.2337L36.7298 47.3989C41.0233 40.0227 74.6855 38.0087 74.6855 38.0087C79.7951 35.0686 84.0368 32.8862 87.3525 31.2996C92.6434 28.7675 98.6726 26.3001 104.507 25.7237C120.309 24.163 133.3 25.931 136.486 26.4491C140.21 27.0513 158.919 35.1981 160.324 35.904C161.729 36.6099 173.218 37.5618 174.694 37.7432C176.171 37.9245 176.125 39.3945 176.125 39.3945L176.326 40.7027L177.097 45.6892L177.285 46.9067C178.36 47.4442 178.36 48.979 178.36 48.979C178.36 48.979 179.033 62.0605 176.825 62.9606Z" fill="#E14658"/>
<path d="M65.7455 68.7879C69.7286 64.8047 69.7286 58.3467 65.7455 54.3635C61.7623 50.3803 55.3043 50.3803 51.3211 54.3635C47.3379 58.3467 47.3379 64.8047 51.3211 68.7879C55.3043 72.7711 61.7623 72.7711 65.7455 68.7879Z" fill="#2C3A64"/>
<path d="M58.5346 69.5533C54.1374 69.5533 50.5562 65.972 50.5562 61.5749C50.5562 57.1777 54.1374 53.5964 58.5346 53.5964C62.9318 53.5964 66.513 57.1777 66.513 61.5749C66.513 65.972 62.9318 69.5533 58.5346 69.5533ZM58.5346 54.3347C54.5389 54.3347 51.2944 57.5856 51.2944 61.5749C51.2944 65.5705 54.5454 68.815 58.5346 68.815C62.5302 68.815 65.7747 65.5641 65.7747 61.5749C65.7747 57.5856 62.5302 54.3347 58.5346 54.3347Z" fill="#F7F7F7"/>
<path d="M59.8941 69.1908H57.0382L57.9578 61.3613L56.9087 53.9204L60.1726 54.1212L59.0846 61.3613L59.8941 69.1908Z" fill="white"/>
<path d="M52.6025 66.5486L51.1777 64.0748L58.4179 60.9533L64.3369 56.323L65.8005 59.2501L58.9813 61.9312L52.6025 66.5486Z" fill="white"/>
<path d="M51.4561 58.6221L53.0297 56.2324L59.0718 61.3031L65.8651 64.5152L63.9029 67.138L58.4501 62.2486L51.4561 58.6221Z" fill="white"/>
<path d="M58.5215 64.2236C59.9915 64.2236 61.1831 63.032 61.1831 61.562C61.1831 60.092 59.9915 58.9004 58.5215 58.9004C57.0515 58.9004 55.8599 60.092 55.8599 61.562C55.8599 63.032 57.0515 64.2236 58.5215 64.2236Z" fill="white"/>
<path d="M156.207 68.7871C160.191 64.804 160.191 58.3459 156.207 54.3628C152.224 50.3796 145.766 50.3796 141.783 54.3628C137.8 58.3459 137.8 64.804 141.783 68.7871C145.766 72.7703 152.224 72.7703 156.207 68.7871Z" fill="#2C3A64"/>
<path d="M148.997 69.5533C144.6 69.5533 141.019 65.972 141.019 61.5749C141.019 57.1777 144.6 53.5964 148.997 53.5964C153.395 53.5964 156.976 57.1777 156.976 61.5749C156.976 65.972 153.395 69.5533 148.997 69.5533ZM148.997 54.3347C145.002 54.3347 141.757 57.5856 141.757 61.5749C141.757 65.5705 145.008 68.815 148.997 68.815C152.993 68.815 156.238 65.5641 156.238 61.5749C156.238 57.5856 152.987 54.3347 148.997 54.3347Z" fill="white"/>
<path d="M150.357 69.1905H147.502L148.415 61.3611L147.372 53.9202L150.636 54.1209L149.548 61.3611L150.357 69.1905Z" fill="white"/>
<path d="M143.065 66.5483L141.634 64.0745L148.881 60.9531L154.8 56.3228L156.257 59.2499L149.444 61.931L143.065 66.5483Z" fill="white"/>
<path d="M141.919 58.6218L143.493 56.2322L149.535 61.3029L156.328 64.515L154.359 67.1377L148.913 62.2484L141.919 58.6218Z" fill="white"/>
<path d="M148.978 64.2234C150.448 64.2234 151.64 63.0318 151.64 61.5618C151.64 60.0918 150.448 58.9001 148.978 58.9001C147.508 58.9001 146.316 60.0918 146.316 61.5618C146.316 63.0318 147.508 64.2234 148.978 64.2234Z" fill="white"/>
<path d="M48.2503 47.3667H41.5801C39.3718 47.3667 37.3383 48.5583 36.2568 50.4881L36.0302 50.8961C35.797 51.3106 36.0949 51.8222 36.5741 51.8222H44.6044C45.1613 51.8222 45.6858 51.589 46.0615 51.1811L48.6777 48.3446C49.0275 47.969 48.7619 47.3667 48.2503 47.3667Z" fill="#F9DDBF"/>
<path d="M40.149 61.575H37.8695C37.1183 61.575 36.4189 61.9829 36.0562 62.6435L35.9785 62.786C35.9008 62.9284 36.0044 63.1033 36.1663 63.1033H38.9056C39.0934 63.1033 39.2748 63.0256 39.4043 62.8831L40.298 61.9117C40.4145 61.7822 40.3239 61.575 40.149 61.575Z" fill="#1D2949"/>
<path d="M150.461 37.0439L116.404 37.8534C115.737 37.8663 115.187 37.3353 115.187 36.6683V28.8194C115.187 28.2041 115.692 27.7055 116.307 27.712C130.826 27.9127 135.806 28.3207 138.791 29.3504C141.421 30.257 147.579 33.9937 150.759 35.8911C151.303 36.2085 151.089 37.0309 150.461 37.0439Z" fill="white"/>
<path d="M112.227 27.6601C112.777 27.6666 113.321 27.6731 113.846 27.6796V37.9116L80.9933 38.6887C80.5659 38.7017 80.391 38.1448 80.7407 37.9052C84.581 35.3212 97.4423 27.4918 112.227 27.6601Z" fill="white"/>
<path d="M150.345 37.0504H150.325V35.6257C150.442 35.697 150.552 35.7617 150.662 35.8265C151.232 36.1632 151.005 37.031 150.345 37.0504Z" fill="#AFCDFB"/>
<path d="M115.186 38.3262L111.165 38.0089L111.43 27.0645H115.186V38.3262Z" fill="#E14658"/>
<path d="M140.669 38.326H138.798V28.502L140.669 29.6288V38.326Z" fill="#E14658"/>
<path d="M85.0926 35.2566L86.0964 38.5723L80.6177 38.7018C80.3004 38.7083 80.1579 38.3003 80.4169 38.1125C81.6539 37.2253 83.9464 35.6387 85.0926 35.2566Z" fill="#2C3A64"/>
<path d="M80.3781 38.9801C80.1515 38.9801 79.9572 38.8377 79.886 38.6239C79.8147 38.4038 79.8924 38.1706 80.0803 38.0411L80.1968 37.9634C80.3134 37.8792 80.4494 37.7885 80.5919 37.6914C80.7149 37.6072 80.8379 37.523 80.9804 37.4324L81.1876 37.2964C81.3431 37.1928 81.5114 37.0891 81.6863 36.9726C81.8093 36.8949 81.9453 36.8107 82.0749 36.7265L82.0943 36.7135C82.1137 36.7006 82.1331 36.6876 82.1526 36.6747C82.2691 36.6034 82.3857 36.5257 82.5087 36.4545L82.5347 36.4351C82.5735 36.4092 82.6188 36.3833 82.6577 36.3573C82.716 36.3185 82.7807 36.2796 82.8455 36.2408C82.9362 36.189 83.0268 36.1307 83.124 36.0724C83.3895 35.917 83.6679 35.7486 83.9658 35.5738C84.0565 35.5219 84.1472 35.4701 84.2443 35.4119C84.4321 35.3018 84.6199 35.1981 84.8207 35.0881L84.9567 35.0103C85.3517 34.7902 85.7532 34.57 86.1482 34.3627L86.2778 34.2915C86.3361 34.2591 86.4008 34.2267 86.4591 34.1944C87.2103 33.7993 87.9874 33.4108 88.7581 33.0416L88.9977 32.9251C89.2373 32.8085 89.4834 32.6984 89.7359 32.5818C89.8201 32.543 89.9043 32.5041 89.9885 32.4653C90.1569 32.3876 90.3253 32.3163 90.4936 32.2386L90.7527 32.1285C91.0117 32.0184 91.2837 31.8954 91.5881 31.7723C91.7435 31.7076 91.9054 31.6428 92.0608 31.5716C93.1358 31.1312 94.2303 30.7103 95.3118 30.3347L95.5514 30.2505C95.642 30.2181 95.7327 30.1922 95.8234 30.1598L96.1601 30.0433C96.2508 30.0109 96.3414 29.985 96.4321 29.9526L96.4451 29.9461C96.5422 29.9137 96.6393 29.8814 96.73 29.8555C96.9049 29.7972 97.0797 29.7454 97.2546 29.6871C97.3776 29.6482 97.4942 29.6094 97.6172 29.577C97.805 29.5187 97.9928 29.4669 98.1806 29.4086L98.4915 29.318C98.6858 29.2597 98.8865 29.2079 99.0808 29.1496C99.4758 29.0395 99.8709 28.9359 100.266 28.8387L100.292 28.8323C100.324 28.8258 100.363 28.8128 100.395 28.8063C100.564 28.7675 100.739 28.7222 100.907 28.6833C101.011 28.6574 101.114 28.6315 101.218 28.6121L101.296 28.5926C101.373 28.5732 101.451 28.5538 101.529 28.5408C101.632 28.5149 101.736 28.4955 101.84 28.4696C101.943 28.4437 102.047 28.4243 102.15 28.4048C102.254 28.3854 102.364 28.3595 102.468 28.3401C102.571 28.3207 102.675 28.2947 102.785 28.2753L102.804 28.2688C102.902 28.2494 103.005 28.23 103.102 28.2106C103.2 28.1911 103.303 28.1717 103.4 28.1523C103.51 28.1328 103.627 28.1134 103.737 28.094C103.808 28.081 103.879 28.0681 103.957 28.0551L104.061 28.0357C104.275 27.9969 104.488 27.9645 104.702 27.9321C104.806 27.9127 104.916 27.8997 105.026 27.8803H105.045C105.233 27.8544 105.427 27.822 105.615 27.7961C105.971 27.7443 106.327 27.699 106.677 27.6601H106.703C106.8 27.6471 106.897 27.6407 106.994 27.6277C107.066 27.6212 107.137 27.6148 107.208 27.6083C107.279 27.6018 107.357 27.5953 107.428 27.5824C107.506 27.5759 107.59 27.563 107.674 27.5565C107.785 27.5435 107.895 27.5371 108.011 27.5241C108.115 27.5176 108.225 27.5047 108.335 27.4982C108.419 27.4917 108.503 27.4852 108.588 27.4788L109.067 27.4464C109.164 27.4399 109.255 27.4334 109.352 27.427H109.391C109.494 27.4205 109.598 27.414 109.701 27.414C109.786 27.4075 109.87 27.4075 109.954 27.4011H109.96C110.038 27.4011 110.109 27.3946 110.187 27.3946L110.375 27.3881C110.446 27.3881 110.524 27.3816 110.595 27.3816C110.887 27.3752 111.158 27.4788 111.372 27.686C111.579 27.8868 111.696 28.1588 111.696 28.4502V36.9337C111.696 37.6396 111.12 38.2289 110.42 38.2419L80.3846 38.9542C80.3846 38.9736 80.3781 38.9801 80.3781 38.9801ZM85.3387 35.4248L85.151 35.5284C84.9372 35.6515 84.7235 35.768 84.5163 35.8846C84.4192 35.9364 84.3285 35.9882 84.2378 36.0465C83.9464 36.2149 83.668 36.3833 83.4024 36.5387C83.3118 36.597 83.2211 36.6488 83.1304 36.7006C83.0657 36.7394 83.0009 36.7783 82.9426 36.8171C82.8973 36.843 82.8585 36.8689 82.8196 36.8884L82.7937 36.9078C82.6706 36.9855 82.5541 37.0568 82.4375 37.128L82.3598 37.1733C82.2238 37.2575 82.0943 37.3417 81.9712 37.4194C81.7964 37.5295 81.6345 37.6396 81.4791 37.7367L81.2718 37.8727C81.1358 37.9634 81.0063 38.0476 80.8898 38.1253C80.7473 38.2224 80.6178 38.3131 80.4947 38.3908L80.4429 38.4297L86.0835 38.2937L110.407 37.7173C110.822 37.7044 111.158 37.3611 111.158 36.9467V28.4631C111.158 28.3207 111.1 28.1847 110.997 28.081C110.893 27.9774 110.757 27.9256 110.608 27.9321C110.537 27.9321 110.459 27.9386 110.388 27.9386L110.2 27.945C110.129 27.945 110.051 27.9515 109.98 27.9515H109.973C109.889 27.958 109.805 27.958 109.721 27.9645C109.617 27.9709 109.514 27.9774 109.41 27.9774H109.371C109.28 27.9839 109.19 27.9904 109.093 27.9969L108.62 28.0292C108.542 28.0357 108.458 28.0422 108.38 28.0487C108.27 28.0551 108.167 28.0681 108.057 28.0746C107.946 28.081 107.836 28.094 107.726 28.1069C107.642 28.1134 107.564 28.1199 107.48 28.1328C107.402 28.1393 107.331 28.1458 107.26 28.1523C107.189 28.1588 107.117 28.1652 107.046 28.1717C106.949 28.1847 106.852 28.1911 106.755 28.2041H106.735C106.392 28.2429 106.036 28.2883 105.686 28.3401C105.498 28.366 105.311 28.3919 105.123 28.4243H105.11C105 28.4437 104.896 28.4566 104.786 28.4761C104.572 28.5085 104.359 28.5473 104.151 28.5797L104.048 28.5991C103.977 28.6121 103.905 28.625 103.834 28.638C103.724 28.6574 103.607 28.6768 103.497 28.6963C103.4 28.7157 103.297 28.7351 103.2 28.7545C103.102 28.774 102.999 28.7934 102.902 28.8128L102.882 28.8193C102.779 28.8387 102.675 28.8582 102.571 28.8841C102.468 28.9035 102.364 28.9294 102.26 28.9488C102.157 28.9683 102.053 28.9942 101.95 29.0136C101.846 29.0395 101.742 29.0589 101.639 29.0848C101.561 29.1042 101.483 29.1172 101.412 29.1366L101.334 29.1561C101.231 29.182 101.134 29.2014 101.03 29.2273C100.855 29.2661 100.687 29.3115 100.518 29.3503C100.486 29.3568 100.454 29.3698 100.421 29.3762L100.395 29.3827C100 29.4799 99.6053 29.5835 99.2168 29.6936C99.0225 29.7454 98.8282 29.8037 98.6339 29.8555L98.3231 29.9461C98.1418 29.9979 97.954 30.0562 97.7662 30.1145C97.6431 30.1534 97.5266 30.1857 97.41 30.2246C97.2351 30.2764 97.0603 30.3347 96.8854 30.393C96.7883 30.4253 96.6976 30.4513 96.6005 30.4836L96.5875 30.4901C96.4969 30.5225 96.4062 30.5484 96.3155 30.5808L95.9788 30.6909C95.8881 30.7232 95.8039 30.7491 95.7133 30.7815L95.4801 30.8657C94.4051 31.2413 93.3172 31.6558 92.2551 32.0897C92.0997 32.1544 91.9378 32.2192 91.7824 32.284C91.478 32.4135 91.2125 32.53 90.9599 32.6401L90.7009 32.7502C90.5325 32.8279 90.3641 32.8992 90.1957 32.9769C90.1115 33.0157 90.0274 33.0546 89.9497 33.087C89.7036 33.2035 89.4575 33.3136 89.2179 33.4237L88.9783 33.5403C88.2141 33.9094 87.4434 34.2915 86.6987 34.6801C86.6404 34.7124 86.5757 34.7448 86.5174 34.7772L86.3879 34.842C86.0511 35.0362 85.6949 35.2305 85.3387 35.4248Z" fill="#1D2949"/>
<path d="M141.233 37.5425C141.032 37.5425 140.844 37.4648 140.695 37.3223C140.533 37.1604 140.436 36.9338 140.436 36.6941V30.9694C140.436 30.6456 140.481 30.2246 140.747 30.0627C140.986 29.9138 141.388 30.0239 141.641 30.1469C141.919 30.2829 142.113 30.3801 142.223 30.4383C142.236 30.4448 142.249 30.4513 142.269 30.4642L142.385 30.529C143.81 31.3061 145.843 32.5366 148.427 34.175C148.537 34.2462 148.648 34.311 148.758 34.3822C149.017 34.5506 149.269 34.7125 149.515 34.8679L150.422 35.4508C150.577 35.5544 150.733 35.6515 150.875 35.7422C150.895 35.7551 150.921 35.7681 150.94 35.781L150.96 35.794C151.264 35.9883 151.393 36.3639 151.29 36.7265C151.193 37.0697 150.914 37.2964 150.577 37.3029H150.48L141.271 37.5425C141.246 37.5425 141.239 37.5425 141.233 37.5425ZM141.284 30.5355C141.207 30.5355 141.142 30.5614 141.11 30.5873C140.986 30.665 140.915 30.8075 140.915 30.9694V36.6941C140.915 36.8042 140.961 36.9078 141.032 36.9856C141.09 37.0438 141.168 37.0762 141.246 37.0762L150.552 36.8366C150.739 36.8301 150.804 36.6553 150.824 36.6035C150.856 36.4804 150.843 36.2991 150.688 36.202L150.668 36.189C150.649 36.1761 150.629 36.1631 150.603 36.1502C150.454 36.053 150.305 35.9559 150.15 35.8523L149.25 35.2694C149.004 35.114 148.751 34.9521 148.492 34.7837C148.382 34.7125 148.278 34.6477 148.168 34.5765C145.597 32.9381 143.57 31.7206 142.159 30.9435L142.042 30.8787C142.029 30.8722 142.016 30.8658 142.01 30.8593C141.906 30.801 141.712 30.7039 141.44 30.5743C141.375 30.542 141.33 30.5355 141.284 30.5355Z" fill="#1D2949"/>
<path d="M85.0926 35.2566L86.0964 38.5723L80.6177 38.7018C80.3004 38.7083 80.1579 38.3003 80.4169 38.1125C81.6539 37.2253 83.9464 35.6387 85.0926 35.2566Z" fill="#2C3A64"/>
<path d="M116.378 38.1189C115.996 38.1189 115.64 37.97 115.361 37.7045C115.076 37.426 114.921 37.0569 114.921 36.6618V28.8194C114.921 28.4503 115.063 28.1006 115.329 27.8415C115.594 27.5825 115.944 27.44 116.313 27.4465C131.305 27.6537 135.942 27.997 138.889 29.0979L139.063 29.1626V37.5814L116.41 38.1189C116.397 38.1189 116.384 38.1189 116.378 38.1189ZM116.294 27.984C116.074 27.984 115.86 28.0682 115.704 28.2236C115.543 28.3855 115.452 28.5928 115.452 28.8194V36.6683C115.452 36.9209 115.549 37.154 115.73 37.3289C115.912 37.5037 116.145 37.5944 116.397 37.5879L138.526 37.0633V29.5382C135.663 28.5215 130.748 28.1848 116.307 27.984C116.3 27.984 116.3 27.984 116.294 27.984Z" fill="#1D2949"/>
<path d="M177.097 45.6894H170.686C169.734 45.6894 168.833 45.249 168.238 44.5043L165.816 41.4217C165.589 41.1303 165.796 40.7029 166.165 40.7029H176.326L177.097 45.6894Z" fill="#A9453D"/>
<path d="M74.6857 38.0088L74.4267 38.4492C73.4164 40.1459 71.6355 41.2338 69.6668 41.3763C64.363 41.7519 53.6517 42.5031 47.9982 42.8982C40.3436 43.4292 36.7883 47.3407 36.73 47.399C41.0236 40.0228 74.6857 38.0088 74.6857 38.0088Z" fill="#1D2949"/>
<path d="M113.58 27.5855L113.175 61.9436L113.44 61.9467L113.845 27.5886L113.58 27.5855Z" fill="#1D2949"/>
<path d="M136.275 61.4403L69.9937 62.7446L69.9989 63.0101L136.28 61.7058L136.275 61.4403Z" fill="#1D2949"/>
<path d="M109.63 45.0353C109.63 45.398 108.011 45.6959 106.01 45.6959C104.009 45.6959 102.39 45.4044 102.39 45.0353C102.39 44.6727 104.009 44.3748 106.01 44.3748C108.004 44.3748 109.63 44.6727 109.63 45.0353Z" fill="#353C61"/>
<path d="M143.357 45.0353C143.357 45.398 141.738 45.6959 139.737 45.6959C137.736 45.6959 136.117 45.4044 136.117 45.0353C136.117 44.6727 137.736 44.3748 139.737 44.3748C141.731 44.3748 143.357 44.6727 143.357 45.0353Z" fill="#353C61"/>
<path d="M133.695 61.5814L133.429 61.5685C133.617 58.1556 134.627 55.2738 136.441 53.0137C137.891 51.2069 139.847 49.7822 142.262 48.7979C145.934 47.2954 149.574 47.2566 150.325 47.2631V37.0439H150.591V47.535L150.448 47.5286C150.409 47.5286 146.401 47.3796 142.347 49.0439C139.976 50.0153 138.053 51.4077 136.635 53.1821C134.873 55.3969 133.883 58.2269 133.695 61.5814Z" fill="#1D2949"/>
<path d="M78.0789 62.7211C77.9753 53.862 78.4675 47.7292 78.9014 44.1415C79.3676 40.2559 79.8728 38.4362 79.8792 38.4167L80.1383 38.488C80.1189 38.5592 78.1502 45.7929 78.3509 62.7146L78.0789 62.7211Z" fill="#1D2949"/>
<path d="M116.307 27.5759H111.061V27.8414H116.307V27.5759Z" fill="#1D2949"/>
<path d="M70.1371 31.2241L66.3125 40.7917L66.6312 40.9192L70.4558 31.3515L70.1371 31.2241Z" fill="#2B478B"/>
<path d="M65.9883 40.9877C65.9883 40.8452 66.202 40.7351 66.4675 40.7351C66.733 40.7351 66.9467 40.8517 66.9467 40.9877C66.9467 41.1301 66.733 41.2402 66.4675 41.2402C66.2085 41.2402 65.9883 41.1301 65.9883 40.9877Z" fill="#2B478B"/>
<path d="M74.5234 39.0968C74.3679 39.0644 74.219 38.9673 74.1348 38.8183C74.1024 38.7665 71.0846 33.3137 66.3442 26.9996C61.9859 21.1907 55.2508 13.4454 47.8876 9.51448C47.6157 9.37201 47.512 9.02878 47.661 8.75679C47.8035 8.4848 48.1467 8.38118 48.4187 8.53013C51.7603 10.311 55.2444 12.9921 58.7738 16.4891C61.5908 19.2738 64.4403 22.5895 67.2508 26.3391C72.0301 32.7179 75.0868 38.2225 75.1192 38.2743C75.2681 38.5463 75.171 38.8831 74.899 39.032C74.7759 39.1032 74.6464 39.1227 74.5234 39.0968Z" fill="#E14658"/>
<path d="M50.906 26.4362C51.1521 27.0126 51.6831 27.317 52.1235 27.6991C54.5649 29.8102 54.8045 32.3229 52.7193 34.7708C52.0134 35.5998 51.0938 36.1891 49.9281 36.759C50.2066 35.6969 50.9578 35.1659 51.3528 34.4147C52.6415 31.9797 52.3955 30.4514 50.1742 28.8388C49.274 28.1848 48.212 27.7379 47.2276 27.1939C46.9297 26.5528 46.5995 25.9246 46.3469 25.2641C45.6345 23.4184 46.3404 21.9484 47.6486 20.6597C47.804 20.828 47.9594 20.9899 48.1148 21.1583C47.0269 23.1076 47.8558 25.9765 50.906 26.4362Z" fill="#A8A8A8"/>
<path d="M43.0116 28.4436C43.3354 30.4641 43.996 32.4717 43.1671 34.5181C42.8692 35.2564 42.5713 35.9817 41.6128 36.5062C42.0726 33.8252 42.6555 31.2995 41.0624 28.9811C40.8163 28.4048 40.2917 28.1198 39.8255 27.7572C37.3516 25.8403 35.9399 23.3341 35.9075 20.1673C35.901 19.319 36.0046 18.4059 36.8724 17.7971C37.2286 18.6325 36.7818 19.4161 36.9242 20.2062C37.3063 22.3756 38.4526 24.027 40.3112 25.1538C41.6128 25.9504 42.1698 27.3039 43.0116 28.4436Z" fill="#A8A8A8"/>
<path d="M40.2659 18.8722C40.0457 16.6768 39.6442 14.8765 37.8504 13.6072C36.9502 12.9661 36.607 11.8069 37.1251 10.6348C37.2028 10.4534 37.2999 10.1944 37.559 10.2786C37.682 10.3174 37.8115 10.5052 37.8374 10.6477C38.09 12.0854 39.1067 12.9596 40.104 13.8922C41.1661 14.87 41.2438 16.9683 40.2659 18.8722Z" fill="#A8A8A8"/>
<line opacity="0.34" y1="71.5" x2="202" y2="71.5" stroke="#2F323A"/>
</svg>
