<svg width="28" height="25" viewBox="0 0 28 25" fill="none" xmlns="http://www.w3.org/2000/svg">
<path d="M27.9927 6.34721C27.8979 6.39099 27.9416 6.47124 27.9416 6.5369C27.7957 10.6662 27.6498 14.7956 27.5039 18.9176C27.4747 19.6982 26.9421 20.2308 26.1615 20.2308C24.52 20.2381 22.8785 20.2381 21.2369 20.2308C21.0399 20.2308 20.9378 20.2673 20.8649 20.4716C20.6679 21.0115 20.3833 21.5076 20.0332 21.9672C19.8289 22.2298 19.5881 22.3028 19.3838 22.1496C19.1796 21.9964 19.1723 21.7483 19.3692 21.4784C21.4777 18.5674 20.4344 14.5621 17.1878 13.1322C13.3722 11.4542 9.14075 14.4746 9.49094 18.6331C9.83383 22.6968 14.3207 24.9949 17.808 22.8937C17.859 22.8573 17.9174 22.8281 17.9758 22.7989C18.2165 22.6676 18.45 22.7113 18.574 22.9083C18.698 23.1126 18.647 23.3388 18.4135 23.492C17.6037 24.0246 16.7063 24.3383 15.7433 24.4623C12.7302 24.8344 10.0016 23.0032 9.0605 20.3986C9.00213 20.2308 8.8927 20.2454 8.76867 20.2454C6.96664 20.2454 5.15733 20.2454 3.3553 20.2454C2.45064 20.2454 1.93265 19.815 1.83051 18.9176C1.62623 17.2323 1.45114 15.547 1.26145 13.869C1.07176 12.1545 0.874779 10.4474 0.677797 8.73289C0.48811 7.0476 0.298424 5.3623 0.108737 3.67701C0.0795547 3.40707 0.0503718 3.13713 0.0138936 2.85989C-0.0955411 2.02089 0.451632 1.39347 1.29793 1.38617C1.61894 1.38617 1.93994 1.37888 2.25366 1.38617C2.37768 1.38617 2.44334 1.37158 2.46523 1.21837C2.58196 0.474217 3.13643 0 3.88059 0C6.19331 0 8.51332 0.0145911 10.826 0.0145911C11.5483 0.0145911 12.0444 0.350191 12.2925 1.02139C12.3946 1.30592 12.5405 1.38617 12.8469 1.38617C15.736 1.37158 18.6251 1.37888 21.5215 1.37888C21.6309 1.37888 21.7403 1.37888 21.8425 1.40806C22.0467 1.46643 22.1343 1.61963 22.127 1.82391C22.1124 2.0136 22.0103 2.15222 21.8133 2.18869C21.6966 2.21058 21.5798 2.21058 21.4558 2.21058C18.6835 2.21058 15.9111 2.21058 13.1388 2.21058C12.8178 2.21058 12.8178 2.21058 12.9491 2.5097C13.0877 2.81612 13.1461 3.23197 13.3795 3.39977C13.6276 3.58216 14.0507 3.45084 14.3936 3.45084C17.7277 3.45084 21.0691 3.45084 24.4032 3.45814C24.6294 3.45814 24.7461 3.42895 24.6732 3.16631C24.6367 3.03499 24.6367 2.89637 24.6221 2.75775C24.5637 2.28354 24.4835 2.21058 23.9947 2.21058C23.8488 2.21058 23.7029 2.21788 23.5569 2.19599C23.3673 2.16681 23.2505 2.04278 23.2359 1.8458C23.2141 1.64882 23.2943 1.5029 23.4767 1.42995C23.9801 1.21108 24.8702 1.45913 25.1985 1.89687C25.4392 2.21788 25.4392 2.59725 25.483 2.96203C25.5414 3.45814 25.5341 3.45084 26.0229 3.45814C26.2855 3.45814 26.5555 3.44355 26.8108 3.48002C27.4601 3.57487 27.8103 4.01261 28 4.60355C27.9927 5.17991 27.9927 5.76356 27.9927 6.34721ZM2.93215 10.1409C2.93945 10.1409 2.93945 10.1409 2.93215 10.1409C2.88838 11.5709 2.83001 13.0008 2.78624 14.4308C2.73517 15.8607 2.6914 17.2907 2.64033 18.7206C2.62574 19.224 2.80083 19.4064 3.28964 19.4064C5.0333 19.4064 6.76966 19.4064 8.51332 19.4137C8.70301 19.4137 8.74678 19.3626 8.7176 19.1876C8.59358 18.5091 8.60817 17.8306 8.7176 17.1448C9.12616 14.6205 11.0522 12.5704 13.5692 11.994C16.0497 11.425 18.6762 12.4318 20.128 14.5256C21.0983 15.9264 21.4704 17.4731 21.215 19.1657C21.2005 19.2824 21.1348 19.4137 21.361 19.4137C22.9587 19.4064 24.5492 19.4137 26.1469 19.4064C26.4898 19.4064 26.6576 19.224 26.6722 18.8811C26.8327 14.2776 26.9932 9.68132 27.161 5.07777C27.1829 4.47223 26.9859 4.27525 26.3731 4.27525C22.1051 4.27525 17.8372 4.26795 13.5692 4.28254C13.0366 4.28254 12.6937 4.08556 12.4894 3.58946C12.1757 2.83071 11.8255 2.09385 11.5118 1.3424C11.3732 1.0068 11.147 0.85359 10.7823 0.85359C8.51332 0.85359 6.24438 0.838999 3.96813 0.831703C3.45014 0.831703 3.26046 1.01409 3.23857 1.53209C3.13643 4.39928 3.04159 7.27376 2.93215 10.1409ZM1.94724 12.8403C1.96913 12.8403 1.99101 12.8403 2.0129 12.8403C2.02749 12.6288 2.03479 12.4099 2.04938 12.1983C2.12234 10.1701 2.19529 8.13465 2.26095 6.10646C2.30473 4.88808 2.34121 3.66242 2.38498 2.44404C2.39227 2.26895 2.3485 2.20329 2.16611 2.21058C1.85969 2.22517 1.54598 2.20328 1.23956 2.21788C0.933145 2.23247 0.772641 2.41486 0.809119 2.72128C0.882075 3.40707 0.962327 4.10015 1.04258 4.78594C1.23227 6.48583 1.42925 8.19301 1.61894 9.8929C1.72837 10.8705 1.83781 11.8554 1.94724 12.8403Z" fill="#E14658"/>
<path d="M12.9567 17.7649C13.4091 17.7649 13.8687 17.7576 14.321 17.7722C14.5034 17.7795 14.5472 17.7138 14.5472 17.5387C14.5399 16.6632 14.5472 15.7878 14.5472 14.9123C14.5472 14.832 14.5472 14.7445 14.5545 14.6642C14.591 14.4308 14.7369 14.2995 14.963 14.3067C15.1965 14.3067 15.3351 14.4381 15.3643 14.6715C15.3716 14.7518 15.3716 14.832 15.3716 14.9196C15.3716 15.7513 15.3862 16.5757 15.3643 17.4074C15.357 17.6773 15.4154 17.7795 15.7145 17.7722C16.5973 17.7503 17.48 17.7649 18.3628 17.7649C18.64 17.7649 18.8151 17.9254 18.8224 18.1588C18.8297 18.385 18.6473 18.5674 18.3847 18.5893C18.3117 18.5966 18.2388 18.5893 18.1658 18.5893C17.3268 18.5893 16.4878 18.5966 15.6488 18.582C15.43 18.582 15.357 18.6185 15.357 18.8592C15.3716 19.7128 15.3643 20.5737 15.3643 21.4273C15.3643 21.5294 15.3643 21.6316 15.3424 21.7264C15.2913 21.9307 15.1454 22.0328 14.9484 22.0328C14.7588 22.0328 14.6201 21.9307 14.5691 21.741C14.5472 21.6462 14.5399 21.544 14.5399 21.4419C14.5399 20.5664 14.5326 19.6909 14.5399 18.8155C14.5399 18.6258 14.4888 18.5747 14.2991 18.5747C13.431 18.582 12.5701 18.582 11.7019 18.582C11.6216 18.582 11.5341 18.5893 11.4538 18.5747C11.2277 18.5382 11.0672 18.3485 11.0745 18.1443C11.089 17.9327 11.2568 17.7649 11.4903 17.7576C11.9937 17.7649 12.4752 17.7722 12.9567 17.7649Z" fill="#E14658"/>
</svg>
