<svg width="27" height="27" viewBox="0 0 27 27" fill="none" xmlns="http://www.w3.org/2000/svg">
<path d="M5.14984e-05 10.3136C0.115173 10.5303 0.101627 10.7808 0.142258 11.0179C0.812675 14.9591 3.9616 18.0877 7.92992 18.6972C10.5032 19.0967 12.8599 18.5211 14.9795 16.9974C15.1149 16.9026 15.1894 16.8891 15.3113 17.0177C15.5754 17.3022 15.8598 17.573 16.1374 17.8439C16.2255 17.9252 16.2593 17.9929 16.2187 18.1283C16.09 18.5143 16.1848 18.8665 16.449 19.1644C18.1961 21.1621 19.9432 23.1666 21.6972 25.1575C22.0899 25.6045 22.5775 25.8889 23.1734 25.9566C23.1937 25.9566 23.2073 25.9837 23.2208 26.004C23.2547 26.004 23.2886 26.004 23.3224 26.004C23.4782 25.9228 23.6271 25.9228 23.7829 26.004C23.8506 26.004 23.9183 26.004 23.9861 26.004C24.0335 25.916 24.1283 25.9295 24.2095 25.9092C26.0447 25.3946 26.6609 23.0853 25.2727 21.7784C24.1147 20.6881 22.889 19.6723 21.6972 18.6227C20.8845 17.9116 20.0651 17.2006 19.2525 16.4828C18.9139 16.1848 18.5415 16.0629 18.1081 16.2051C18.02 16.2322 17.9726 16.2187 17.9117 16.1577C17.6069 15.853 17.309 15.5415 16.9975 15.2435C16.8688 15.1216 16.9568 15.0539 17.0178 14.9726C17.9184 13.7469 18.5144 12.3858 18.7175 10.8756C19.2051 7.29332 18.0471 4.32723 15.2571 2.03156C13.8621 0.880345 12.2233 0.257332 10.422 0.0541753C10.3678 0.0474034 10.3001 0.0812626 10.273 0C10.1714 0 10.0698 0 9.96826 0C9.88022 0.101578 9.77188 0.0270873 9.6703 0.047403C9.60935 0.0541748 9.5484 0.0677188 9.51455 0C9.46037 0 9.41297 0 9.35879 0C9.31816 0.0609469 9.25721 0.047403 9.20304 0.047403C9.12177 0.0338592 9.0202 0.0948063 8.95248 0C8.8509 0 8.74932 0 8.64774 0C8.38364 0.10835 8.09245 0.0948062 7.8148 0.142209C3.90743 0.812626 0.805902 3.91415 0.149031 7.80798C0.1084 8.05177 0.121943 8.3091 0.00682068 8.53257C4.95911e-05 9.1285 5.14984e-05 9.71765 5.14984e-05 10.3136ZM18.0607 9.41292C18.0674 14.16 14.2142 18.0268 9.43328 18.0606C4.67942 18.0945 0.758501 14.1939 0.758501 9.41292C0.758501 4.65228 4.61847 0.785538 9.38588 0.765223C14.1668 0.751679 18.0539 4.61842 18.0607 9.41292ZM25.2389 23.4036C25.2456 24.2095 24.8258 24.846 24.1757 25.1101C23.5188 25.381 22.7671 25.2253 22.2795 24.67C21.02 23.2546 19.7807 21.819 18.5279 20.3969C18.4399 20.2953 18.4399 20.2479 18.5347 20.1531C19.0832 19.6114 19.625 19.0696 20.1667 18.5211C20.2615 18.4263 20.3157 18.4331 20.4105 18.5143C20.81 18.8732 21.2231 19.2321 21.6294 19.5843C22.6249 20.4511 23.6136 21.3247 24.6091 22.1915C25.0018 22.5504 25.2253 22.977 25.2389 23.4036ZM16.9094 18.4466C16.9027 18.3247 16.9704 18.2435 17.0516 18.1622C17.4241 17.7897 17.7898 17.4173 18.1622 17.0516C18.3586 16.8552 18.4873 16.8484 18.6904 17.0245C18.9952 17.2818 19.2864 17.5527 19.5911 17.8033C19.6791 17.8778 19.6927 17.9252 19.6046 18.0132C19.0764 18.5346 18.5482 19.0628 18.0268 19.5911C17.9455 19.6723 17.8981 19.6859 17.8169 19.5843C17.5595 19.2728 17.2887 18.968 17.0178 18.6633C16.9568 18.6091 16.9094 18.5414 16.9094 18.4466ZM16.3948 15.7108C16.5641 15.8936 16.7266 16.0697 16.8891 16.239C17.0516 16.4083 17.3564 16.5979 17.3361 16.7469C17.3158 16.9365 17.0381 17.1058 16.8688 17.2818C16.862 17.2886 16.8553 17.2954 16.8485 17.3022C16.7808 17.3902 16.7266 17.3834 16.6521 17.3022C16.3812 17.0245 16.1104 16.7469 15.8259 16.4828C15.7379 16.4015 15.765 16.3609 15.8327 16.2864C16.0156 16.1035 16.1916 15.9207 16.3948 15.7108Z" fill="#E14658"/>
<path d="M2.11283 9.39938C2.10606 13.063 4.77418 16.1239 8.42423 16.6453C8.72896 16.6927 8.93212 16.5776 8.97275 16.3338C9.01338 16.1035 8.84408 15.9342 8.53258 15.8868C5.03828 15.3993 2.58009 12.3045 2.89837 8.78991C3.16247 5.78996 5.492 3.36563 8.49872 2.93223C8.6477 2.91192 8.80345 2.89837 8.90503 2.74939C8.99306 2.62072 9.00661 2.47852 8.93212 2.34308C8.83731 2.18055 8.68156 2.13315 8.49872 2.16024C7.41522 2.29567 6.41298 2.65458 5.49877 3.23697C3.37917 4.59811 2.1196 6.89378 2.11283 9.39938Z" fill="#E14658"/>
<path d="M16.706 9.3926C16.6993 5.81705 14.1124 2.77647 10.5707 2.19409C10.266 2.14669 10.0696 2.25504 10.029 2.49882C9.99509 2.72907 10.1441 2.89837 10.4353 2.94577C13.2862 3.4198 15.4532 5.61389 15.8866 8.4784C16.4081 11.9591 13.9702 15.2977 10.503 15.853C10.442 15.8597 10.3879 15.8733 10.3269 15.8868C10.0899 15.941 9.96801 16.1103 10.0019 16.327C10.0357 16.5437 10.2253 16.6656 10.4759 16.6317C11.4307 16.4963 12.3246 16.178 13.1508 15.6837C15.372 14.3496 16.7128 11.9727 16.706 9.3926Z" fill="#E14658"/>
<path d="M9.18271 4.40173C8.0518 4.41528 6.88027 4.88931 5.90512 5.82383C5.75614 5.97281 5.70196 6.13533 5.81031 6.32495C5.89835 6.48747 6.04733 6.5281 6.2234 6.50102C6.3182 6.48747 6.38592 6.41975 6.45364 6.35204C8.2211 4.7471 10.598 4.7471 12.3587 6.35881C12.5619 6.54842 12.7786 6.56196 12.9411 6.39944C13.1104 6.23014 13.0833 6.00667 12.8802 5.80351C12.0066 4.92317 10.7199 4.40173 9.18271 4.40173Z" fill="#E14658"/>
</svg>
