<svg width="24" height="25" viewBox="0 0 24 25" fill="none" xmlns="http://www.w3.org/2000/svg">
    <mask id="mask0_1666_129" style="mask-type:alpha" maskUnits="userSpaceOnUse" x="0" y="0" width="24" height="25">
        <rect y="0.5" width="24" height="24" fill="#D9D9D9" />
    </mask>
    <g mask="url(#mask0_1666_129)">
        <path
            d="M4 19.25C2.96417 19.25 2.08017 18.884 1.348 18.152C0.616 17.4198 0.25 16.5358 0.25 15.5C0.25 14.5563 0.562167 13.7339 1.1865 13.0328C1.81083 12.3314 2.59483 11.9243 3.5385 11.8115H3.904L2.7615 10.8462H0.84625C0.674417 10.8462 0.532083 10.7898 0.41925 10.677C0.306417 10.5642 0.25 10.4218 0.25 10.25C0.25 10.0782 0.306417 9.93583 0.41925 9.823C0.532083 9.71017 0.674417 9.65375 0.84625 9.65375H4.26925L6.98075 11.2693L10.727 9.8655C10.8308 9.83217 10.9362 9.80458 11.0433 9.78275C11.1503 9.76092 11.2608 9.75 11.375 9.75H14.6693L12.8115 7.36525C12.7795 7.32692 12.7427 7.29808 12.701 7.27875C12.6593 7.25958 12.6128 7.25 12.5615 7.25H11C10.7872 7.25 10.609 7.17817 10.4655 7.0345C10.3218 6.891 10.25 6.71283 10.25 6.5C10.25 6.28717 10.3218 6.109 10.4655 5.9655C10.609 5.82183 10.7872 5.75 11 5.75H12.5558C12.8404 5.75 13.1074 5.81283 13.3568 5.9385C13.6061 6.06417 13.8128 6.234 13.977 6.448L15.4193 8.29625L17.9385 7.19225C18.0923 7.12825 18.2372 7.13983 18.373 7.227C18.509 7.31417 18.577 7.43975 18.577 7.60375V8.81725C18.577 8.93775 18.5318 9.04325 18.4413 9.13375C18.3509 9.22408 18.2455 9.26925 18.125 9.26925H16.2L18.3923 12.1077C18.6423 11.9821 18.9028 11.8911 19.174 11.8348C19.4452 11.7783 19.7205 11.75 20 11.75C21.0358 11.75 21.9198 12.116 22.652 12.848C23.384 13.5802 23.75 14.4642 23.75 15.5C23.75 16.5358 23.384 17.4198 22.652 18.152C21.9198 18.884 21.0358 19.25 20 19.25C18.9642 19.25 18.0802 18.884 17.348 18.152C16.616 17.4198 16.25 16.5358 16.25 15.5C16.25 15.0372 16.3356 14.5948 16.5068 14.173C16.6779 13.7513 16.918 13.3667 17.227 13.0192L16.3808 11.9577L13.1557 16.8385C13.0724 16.959 12.9653 17.0577 12.8345 17.1345C12.7038 17.2115 12.5616 17.25 12.4078 17.25H10.4327C10.3186 17.25 10.2122 17.2323 10.1135 17.197C10.0148 17.1618 9.927 17.1058 9.85 17.0288L7.75 15.2115V15.6538C7.69867 16.6589 7.31208 17.5096 6.59025 18.2057C5.86858 18.9019 5.00517 19.25 4 19.25ZM4 17.75C4.627 17.75 5.15875 17.5317 5.59525 17.0953C6.03175 16.6588 6.25 16.127 6.25 15.5C6.25 14.873 6.03175 14.3412 5.59525 13.9047C5.15875 13.4682 4.627 13.25 4 13.25C3.373 13.25 2.84125 13.4682 2.40475 13.9047C1.96825 14.3412 1.75 14.873 1.75 15.5C1.75 16.127 1.96825 16.6588 2.40475 17.0953C2.84125 17.5317 3.373 17.75 4 17.75ZM20 17.75C20.627 17.75 21.1588 17.5317 21.5953 17.0953C22.0318 16.6588 22.25 16.127 22.25 15.5C22.25 14.873 22.0318 14.3412 21.5953 13.9047C21.1588 13.4682 20.627 13.25 20 13.25C19.373 13.25 18.8413 13.4682 18.4048 13.9047C17.9683 14.3412 17.75 14.873 17.75 15.5C17.75 16.127 17.9683 16.6588 18.4048 17.0953C18.8413 17.5317 19.373 17.75 20 17.75ZM12.0848 15.75L15.0615 11.25H11.3115L7.26925 12.7537L10.6538 15.75H12.0848Z"
            fill="#E14658" />
    </g>
</svg>
