<svg width="24" height="25" viewBox="0 0 24 25" fill="none" xmlns="http://www.w3.org/2000/svg">
    <path
        d="M9.13988 7.0879C9.02582 7.20853 8.88205 7.26885 8.70856 7.26885C8.53507 7.26885 8.39219 7.20853 8.27991 7.0879L6.95424 5.69426C6.84031 5.57362 6.78466 5.42207 6.78726 5.23959C6.78987 5.05696 6.84821 4.90533 6.96226 4.78469C7.07632 4.6642 7.2201 4.60396 7.39359 4.60396C7.56708 4.60396 7.70996 4.6642 7.82224 4.78469L9.13988 6.18682C9.2538 6.30746 9.31076 6.45764 9.31076 6.63736C9.31076 6.81708 9.2538 6.96726 9.13988 7.0879ZM14.8681 7.0879C14.7541 6.96726 14.6971 6.8152 14.6971 6.6317C14.6971 6.4482 14.7541 6.29708 14.8681 6.17833L16.1858 4.78469C16.2981 4.6642 16.441 4.60396 16.6144 4.60396C16.7879 4.60396 16.9317 4.6642 17.0458 4.78469C17.1597 4.90533 17.2166 5.0574 17.2166 5.24089C17.2166 5.42439 17.1597 5.57551 17.0458 5.69426L15.7201 7.09639C15.606 7.21688 15.464 7.27575 15.2941 7.27299C15.1242 7.27023 14.9822 7.20853 14.8681 7.0879ZM11.9998 6.4196C11.8247 6.4196 11.678 6.35696 11.5598 6.23168C11.4415 6.10654 11.3824 5.95143 11.3824 5.76634V3.15327C11.3824 2.96817 11.4416 2.81299 11.56 2.68771C11.6785 2.56257 11.8252 2.5 12.0002 2.5C12.1753 2.5 12.322 2.56257 12.4402 2.68771C12.5585 2.81299 12.6176 2.96817 12.6176 3.15327V5.76634C12.6176 5.95143 12.5584 6.10654 12.44 6.23168C12.3215 6.35696 12.1748 6.4196 11.9998 6.4196ZM5 21.5787V15.4347C5 15.3443 5.00556 15.2538 5.01668 15.1634C5.02779 15.0729 5.04646 14.9863 5.07268 14.9034L6.54741 10.4934C6.6461 10.1797 6.82494 9.92482 7.08394 9.72884C7.34294 9.53271 7.63282 9.43465 7.95359 9.43465H16.0464C16.3672 9.43465 16.6571 9.53271 16.9161 9.72884C17.1751 9.92482 17.3539 10.1797 17.4526 10.4934L18.9273 14.9034C18.9535 14.9863 18.9722 15.0729 18.9833 15.1634C18.9944 15.2538 19 15.3443 19 15.4347V21.5787C19 21.8346 18.9152 22.0521 18.7457 22.2313C18.5761 22.4104 18.3702 22.5 18.1281 22.5C17.8858 22.5 17.6802 22.4104 17.5113 22.2313C17.3424 22.0521 17.258 21.8346 17.258 21.5787V20.758H6.74197V21.5787C6.74197 21.8346 6.65722 22.0521 6.48771 22.2313C6.3182 22.4104 6.11231 22.5 5.87006 22.5C5.62794 22.5 5.4224 22.4104 5.25344 22.2313C5.08448 22.0521 5 21.8346 5 21.5787ZM6.73579 13.8568H17.2642L16.2887 10.9171C16.2676 10.8612 16.2359 10.818 16.1936 10.7874C16.1513 10.7566 16.1012 10.7412 16.0431 10.7412H7.95688C7.89882 10.7412 7.84866 10.7566 7.80638 10.7874C7.76411 10.818 7.7324 10.8612 7.71126 10.9171L6.73579 13.8568ZM8.26426 18.4465C8.56389 18.4465 8.81802 18.3355 9.02665 18.1135C9.23514 17.8917 9.33938 17.6223 9.33938 17.3054C9.33938 16.9885 9.23452 16.7197 9.02479 16.4991C8.81493 16.2786 8.56019 16.1683 8.26056 16.1683C7.96093 16.1683 7.70687 16.2792 7.49838 16.501C7.28976 16.723 7.18544 16.9924 7.18544 17.3094C7.18544 17.6263 7.29037 17.895 7.50024 18.1155C7.70996 18.3361 7.96464 18.4465 8.26426 18.4465ZM15.7394 18.4465C16.0391 18.4465 16.2931 18.3355 16.5016 18.1135C16.7102 17.8917 16.8146 17.6223 16.8146 17.3054C16.8146 16.9885 16.7096 16.7197 16.4998 16.4991C16.29 16.2786 16.0354 16.1683 15.7357 16.1683C15.4361 16.1683 15.182 16.2792 14.9734 16.501C14.7649 16.723 14.6606 16.9924 14.6606 17.3094C14.6606 17.6263 14.7655 17.895 14.9752 18.1155C15.1851 18.3361 15.4398 18.4465 15.7394 18.4465ZM6.23529 19.4514H17.7647V15.1634H6.23529V19.4514Z"
        fill="#E14658" />
</svg>
