<svg width="42" height="42" viewBox="0 0 42 42" fill="none" xmlns="http://www.w3.org/2000/svg">
<path d="M41.9989 19.3595C41.9989 20.4533 41.9989 21.547 41.9989 22.6408C41.9442 22.8398 41.8698 23.0356 41.8381 23.2379C41.732 23.9106 41.6719 24.592 41.5384 25.2581C41.2311 26.7926 40.74 28.2725 40.1002 29.7009C39.7316 30.5234 39.3641 31.3525 38.9167 32.1334C38.6094 32.6683 38.1784 33.1353 37.7792 33.6143C37.24 34.2608 36.6909 34.9006 36.1244 35.524C35.1105 36.6408 33.9467 37.5858 32.7108 38.4443C32.1595 38.8272 31.6291 39.2504 31.0439 39.5709C30.4905 39.875 29.8813 40.0806 29.2873 40.3081C28.3642 40.6614 27.4553 41.0868 26.5005 41.3165C25.2886 41.6086 24.0373 41.7365 22.8025 41.9345C22.7205 41.9564 22.6384 41.9783 22.5564 42.0001C21.5447 42.0001 20.533 42.0001 19.5212 42.0001C19.4392 42.0001 19.3572 42.0001 19.2752 42.0001C19.1658 42.0001 19.0564 42.0001 18.947 42.0001C18.2908 41.8951 17.6345 41.7901 16.9783 41.6851C16.8689 41.6578 16.7595 41.6304 16.6502 41.6031C16.6228 41.6031 16.5944 41.6031 16.567 41.6031C16.485 41.5758 16.4041 41.5484 16.322 41.5211C15.9184 41.4084 15.5127 41.3056 15.1134 41.1809C14.3259 40.9348 13.5231 40.7237 12.7619 40.4109C11.6452 39.9504 10.5864 39.3598 9.59547 38.6675C8.7675 38.09 7.94281 37.495 7.19141 36.8245C6.33172 36.0578 5.49937 35.2462 4.75453 34.3701C3.45078 32.8356 2.45109 31.0976 1.6625 29.2459C0.91 27.4784 0.363125 25.6497 0.16625 23.7279C0.13125 23.3911 0.0557812 23.0575 0 22.7228C0 21.547 0 20.3712 0 19.1954C0.0295313 19.1287 0.0765628 19.0642 0.0853128 18.9953C0.170625 18.3204 0.206719 17.6358 0.343437 16.9718C0.512969 16.1515 0.725156 15.3345 0.992031 14.5404C1.25453 13.7606 1.42625 12.9436 1.88563 12.2315C2.17 11.7897 2.38328 11.3029 2.62719 10.8359C2.68078 10.779 2.73547 10.7222 2.78906 10.6653C2.765 10.2945 3.045 10.1261 3.27906 9.927C3.30094 9.91388 3.32281 9.89966 3.34469 9.88653C3.32281 9.87341 3.30094 9.85919 3.27906 9.84606C3.30969 9.74763 3.31734 9.63169 3.37531 9.55294C3.53938 9.3331 3.73844 9.1395 3.89813 8.91747C4.18688 8.51606 4.41875 8.06872 4.7425 7.70013C5.34516 7.01544 5.95875 6.33075 6.64016 5.727C7.51734 4.95044 8.44812 4.23075 9.39094 3.53294C9.8 3.23106 10.2998 3.05497 10.7505 2.8056C11.3455 2.47638 11.9142 2.09794 12.5245 1.80263C13.7211 1.22403 14.9855 0.833564 16.2892 0.575439C16.8612 0.461689 17.4344 0.354502 18.0075 0.247314C18.457 0.163096 18.9077 0.083252 19.3583 0.0012207C19.6864 0.0012207 20.0145 0.0012207 20.3427 0.0012207C20.4794 0.0012207 20.6161 0.0012207 20.7528 0.0012207C20.9169 0.0012207 21.0809 0.0012207 21.245 0.0012207C21.4364 0.0012207 21.6278 0.0012207 21.8192 0.0012207C22.0653 0.0012207 22.3114 0.0012207 22.5575 0.0012207C23.3505 0.137939 24.1434 0.275752 24.9364 0.410283C26.6208 0.695752 28.2319 1.21966 29.7773 1.93935C31.5875 2.78263 33.2511 3.85231 34.7572 5.17466C35.933 6.20606 37.0169 7.3206 37.9072 8.60138C38.6827 9.717 39.375 10.8895 40.1002 12.039C40.1406 12.1036 40.1548 12.1856 40.1745 12.2622C40.2161 12.4295 40.2248 12.61 40.2959 12.7631C40.4338 13.0617 40.6602 13.3286 40.752 13.637C40.9795 14.3983 41.1611 15.1737 41.3438 15.947C41.4684 16.4764 41.5647 17.0134 41.6719 17.5472C41.7266 17.8206 41.7758 18.0951 41.8392 18.3675C41.8425 18.3817 41.9442 18.374 42 18.3773C42 18.432 42 18.4867 42 18.5414C41.9464 18.5436 41.8939 18.5458 41.8403 18.5479C41.8698 18.7372 41.9005 18.9264 41.93 19.1156C41.953 19.1954 41.9759 19.2775 41.9989 19.3595ZM30.5047 12.7117C29.9305 13.2597 29.365 13.8164 28.7809 14.3545C27.3645 15.6604 25.9372 16.9543 24.5197 18.2592C23.3417 19.3442 22.1714 20.4379 21.0011 21.5317C19.7116 22.7348 18.4231 23.939 17.1391 25.1487C16.7683 25.4976 16.7486 25.5129 16.4019 25.1454C15.6756 24.3733 14.9625 23.5879 14.2341 22.8179C13.0845 21.6017 11.9164 20.4029 10.7745 19.179C9.835 18.1706 8.47547 18.187 7.42766 18.7087C6.70906 19.0675 6.32078 19.6581 6.10531 20.4981C5.85156 21.489 6.10531 22.2667 6.68609 22.947C7.69891 24.1348 8.79375 25.2537 9.86344 26.3923C10.9069 27.5036 11.9623 28.6028 13.0102 29.7097C13.4498 30.1734 13.883 30.6437 14.3183 31.1118C15.0314 31.8797 15.7423 32.6475 16.4587 33.4207C17.7702 32.2329 19.0586 31.0801 20.3295 29.9098C21.6519 28.6914 22.96 27.4565 24.2725 26.2272C25.5391 25.0404 26.8034 23.8504 28.0711 22.6637C28.9023 21.885 29.7402 21.1128 30.5703 20.334C31.9353 19.0533 33.2894 17.7593 34.6642 16.4884C35.2603 15.9372 35.4517 15.2306 35.5097 14.4759C35.5633 13.7923 35.2056 13.1984 34.8425 12.6898C34.3886 12.0533 33.6525 11.7918 32.8617 11.7284C31.9473 11.654 31.2102 11.9953 30.5944 12.645C30.5659 12.6679 30.5353 12.6898 30.5047 12.7117Z" fill="#353C61"/>
<path d="M41.93 19.1133C41.9005 18.9241 41.8699 18.7348 41.8403 18.5456C41.8939 18.5434 41.9464 18.5413 42 18.5391C42 18.7305 42 18.9219 42 19.1133C41.976 19.1133 41.953 19.1133 41.93 19.1133Z" fill="white"/>
<path d="M41.9297 19.1133C41.9527 19.1133 41.9756 19.1133 41.9997 19.1133C41.9997 19.1953 41.9997 19.2773 41.9997 19.3594C41.9756 19.2773 41.9527 19.1953 41.9297 19.1133Z" fill="#FDFEFD"/>
<path d="M22.8037 41.9343C22.8037 41.9562 22.8037 41.9781 22.8037 42C22.7217 42 22.6396 42 22.5576 42C22.6396 41.9781 22.7217 41.9562 22.8037 41.9343Z" fill="#FDFEFD"/>
<path d="M16.9795 41.686C16.7957 41.9562 16.717 41.8053 16.6514 41.604C16.7607 41.6313 16.8701 41.6587 16.9795 41.686Z" fill="white"/>
<path d="M2.62646 10.8347C2.68006 10.7778 2.73475 10.7209 2.78834 10.6641C2.73475 10.7209 2.68115 10.7778 2.62646 10.8347Z" fill="#F7FDF7"/>
<path d="M16.5678 41.604C16.4857 41.5767 16.4048 41.5493 16.3228 41.522C16.4048 41.5493 16.4868 41.5767 16.5678 41.604Z" fill="white"/>
<path d="M3.27828 9.92591C3.24766 9.91278 3.21813 9.89856 3.1875 9.88544C3.21813 9.87231 3.24766 9.8581 3.27828 9.84497C3.30016 9.8581 3.32203 9.87231 3.34391 9.88544C3.32313 9.89856 3.30016 9.91169 3.27828 9.92591Z" fill="#FAFEFA"/>
<path d="M30.5957 12.6448C30.565 12.6667 30.5355 12.6896 30.5049 12.7115C30.5355 12.6896 30.5661 12.6677 30.5957 12.6448Z" fill="#FEFFFE"/>
</svg>
