<svg width="24" height="24" viewBox="0 0 24 24" fill="none" xmlns="http://www.w3.org/2000/svg">
<path d="M6.0001 17.9996V18.5996C6.0001 18.9329 5.88343 19.2163 5.6501 19.4496C5.41676 19.6829 5.13343 19.7996 4.8001 19.7996C4.46676 19.7996 4.18343 19.6829 3.9501 19.4496C3.71676 19.2163 3.6001 18.9329 3.6001 18.5996V11.7524C3.6001 11.6407 3.6126 11.5289 3.6376 11.4171C3.6626 11.3054 3.69176 11.1913 3.7251 11.0746L5.55485 6.53611C5.68501 6.19511 5.90426 5.92044 6.2126 5.71211C6.52093 5.50378 6.85843 5.39961 7.2251 5.39961H9.6001V4.50486C9.6001 4.25136 9.68635 4.03711 9.85885 3.86211C10.0313 3.68711 10.2451 3.59961 10.5001 3.59961H13.5001C13.7551 3.59961 13.9688 3.68586 14.1413 3.85836C14.3138 4.03086 14.4001 4.24461 14.4001 4.49961V5.39961H16.7751C17.1418 5.39961 17.4793 5.50378 17.7876 5.71211C18.0959 5.92044 18.3152 6.19511 18.4453 6.53611L20.2751 11.0746C20.3084 11.1913 20.3376 11.3054 20.3626 11.4171C20.3876 11.5289 20.4001 11.6407 20.4001 11.7524V18.5996C20.4001 18.9329 20.2834 19.2163 20.0501 19.4496C19.8168 19.6829 19.5334 19.7996 19.2001 19.7996C18.8668 19.7996 18.5834 19.6829 18.3501 19.4496C18.1168 19.2163 18.0001 18.9329 18.0001 18.5996V17.9996H6.0001ZM6.0251 10.1996H18.0001L16.8001 7.19961H7.2251L6.0251 10.1996ZM7.8001 15.2996C8.13343 15.2996 8.41676 15.1829 8.6501 14.9496C8.88343 14.7163 9.0001 14.4329 9.0001 14.0996C9.0001 13.7663 8.88343 13.4829 8.6501 13.2496C8.41676 13.0163 8.13343 12.8996 7.8001 12.8996C7.46676 12.8996 7.18343 13.0163 6.9501 13.2496C6.71676 13.4829 6.6001 13.7663 6.6001 14.0996C6.6001 14.4329 6.71676 14.7163 6.9501 14.9496C7.18343 15.1829 7.46676 15.2996 7.8001 15.2996ZM16.2001 15.2996C16.5334 15.2996 16.8168 15.1829 17.0501 14.9496C17.2834 14.7163 17.4001 14.4329 17.4001 14.0996C17.4001 13.7663 17.2834 13.4829 17.0501 13.2496C16.8168 13.0163 16.5334 12.8996 16.2001 12.8996C15.8668 12.8996 15.5834 13.0163 15.3501 13.2496C15.1168 13.4829 15.0001 13.7663 15.0001 14.0996C15.0001 14.4329 15.1168 14.7163 15.3501 14.9496C15.5834 15.1829 15.8668 15.2996 16.2001 15.2996ZM5.4001 16.1996H18.6001V11.9996H5.4001V16.1996Z" fill="#E14658"/>
</svg>
